<svg width="42" height="42" viewBox="0 0 42 42" fill="none" xmlns="http://www.w3.org/2000/svg">
<path d="M33.0381 8.35885C33.0381 8.90436 33.0381 9.45397 33.0381 9.99948C33.0381 11.3981 33.0381 12.7967 33.0381 14.1995C33.0381 16.1272 33.0381 18.0549 33.0381 19.9786C33.0381 22.0745 33.0381 24.1704 33.0381 26.2663C33.0381 28.194 33.0381 30.1258 33.0381 32.0536C33.0381 33.4727 33.0381 34.896 33.0381 36.3151C33.0381 36.8852 33.0463 37.4553 33.0381 38.0255C33.0381 38.046 33.0381 38.0542 33.0381 38.0829C33.0381 38.1198 33.034 38.1567 33.0299 38.1977C33.0422 38.0747 33.0258 38.1936 33.0217 38.2264C33.0053 38.3085 32.9807 38.3864 32.952 38.4643C32.993 38.3577 32.9602 38.4438 32.9479 38.4643C32.915 38.5176 32.8863 38.5751 32.8535 38.6284C32.8371 38.6571 32.7633 38.7473 32.8371 38.6571C32.8125 38.6858 32.792 38.7104 32.7674 38.7391C32.7387 38.7719 32.7018 38.8007 32.673 38.8335C32.6525 38.854 32.5582 38.9237 32.6525 38.854C32.5951 38.895 32.5336 38.936 32.4721 38.9688C32.4557 38.977 32.2957 39.0467 32.4229 38.9975C32.3736 39.018 32.3203 39.0344 32.267 39.0508C32.2301 39.059 32.1973 39.0673 32.1604 39.0755C31.9922 39.1165 32.2342 39.0755 32.1275 39.0796C32.0783 39.0837 32.0332 39.0837 31.984 39.0878C31.9799 39.0878 31.9758 39.0878 31.9717 39.0878C31.943 39.0878 31.9143 39.0878 31.8897 39.0878C31.5533 39.0878 31.2211 39.0878 30.8848 39.0878C29.4164 39.0878 27.9439 39.0878 26.4756 39.0878C24.433 39.0878 22.3945 39.0878 20.352 39.0878C18.3873 39.0878 16.4227 39.0878 14.458 39.0878C13.1701 39.0878 11.8822 39.0878 10.5943 39.0878C10.4057 39.0878 10.217 39.0919 10.0283 39.0878C9.9791 39.0878 9.93398 39.0837 9.88477 39.0796C9.78223 39.0714 10.0201 39.1165 9.85195 39.0755C9.76992 39.0549 9.69199 39.0344 9.61406 39.0057C9.51973 38.9729 9.73301 39.0755 9.58535 38.9934C9.55254 38.977 9.51973 38.9606 9.49102 38.9401C9.4541 38.9155 9.41309 38.8909 9.37617 38.8663C9.33926 38.8417 9.34746 38.8458 9.39258 38.8827C9.37207 38.8663 9.35156 38.8499 9.33105 38.8294C9.27363 38.7719 9.21621 38.7186 9.16289 38.6571C9.23672 38.7473 9.16289 38.6571 9.14648 38.6284C9.12188 38.5915 9.09727 38.5505 9.07676 38.5135C9.06035 38.4807 9.04395 38.4479 9.02754 38.4151C9.07676 38.5217 9.02754 38.4151 9.01934 38.3864C9.00703 38.3413 8.99063 38.3003 8.98242 38.2551C8.97422 38.2264 8.95371 38.0665 8.96602 38.1977C8.95781 38.1075 8.95781 38.0214 8.95781 37.9352C8.95781 37.1641 8.95781 36.393 8.95781 35.6219C8.95781 34.0715 8.95781 32.5171 8.95781 30.9667C8.95781 28.9774 8.95781 26.9841 8.95781 24.9948C8.95781 22.8989 8.95781 20.8071 8.95781 18.7112C8.95781 16.8737 8.95781 15.0362 8.95781 13.1987C8.95781 11.9395 8.95781 10.6762 8.95781 9.41706C8.95781 9.11764 8.95781 8.81823 8.95781 8.51471C8.95781 8.4655 8.95781 8.41217 8.95781 8.36296C8.95781 8.32194 8.96191 8.28503 8.96191 8.24401C8.96602 8.12507 8.96602 8.2112 8.95781 8.23991C8.96602 8.19479 8.97422 8.14967 8.98652 8.10456C8.99883 8.05944 9.01523 8.01842 9.02754 7.97331C9.06856 7.82565 8.97422 8.05124 9.05215 7.91999C9.09727 7.84206 9.13828 7.76413 9.1916 7.6903C9.12188 7.78464 9.24082 7.64108 9.26953 7.61237C9.30234 7.57956 9.33516 7.55085 9.36797 7.52214C9.4418 7.45651 9.24902 7.59186 9.39258 7.50573C9.47051 7.46061 9.54434 7.41139 9.62637 7.37448C9.50332 7.4319 9.66328 7.36217 9.68379 7.35807C9.7207 7.34577 9.75352 7.33756 9.79043 7.32936C9.82734 7.32116 9.86426 7.31296 9.90117 7.30885C9.77813 7.32936 9.90117 7.31296 9.93398 7.30885C9.9873 7.30475 10.0406 7.30475 10.0939 7.30475C10.2826 7.30475 10.4754 7.30475 10.6641 7.30475C11.025 7.30475 11.3859 7.30475 11.751 7.30475C11.5459 7.09967 11.3408 6.8946 11.1357 6.68952C11.1357 7.73952 11.1357 8.78952 11.1357 9.83952C11.1357 9.99128 11.1357 10.1471 11.1357 10.2989C11.1357 10.6311 11.4188 10.9141 11.751 10.9141C12.3662 10.9141 12.9773 10.9141 13.5926 10.9141C15.0609 10.9141 16.5252 10.9141 17.9936 10.9141C19.7695 10.9141 21.5414 10.9141 23.3174 10.9141C24.8555 10.9141 26.3977 10.9141 27.9357 10.9141C28.6822 10.9141 29.4328 10.9387 30.1793 10.9141C30.1875 10.9141 30.1998 10.9141 30.208 10.9141C30.5402 10.9141 30.8232 10.6311 30.8232 10.2989C30.8232 9.24889 30.8232 8.19889 30.8232 7.14889C30.8232 6.99714 30.8232 6.84128 30.8232 6.68952C30.6182 6.8946 30.4131 7.09967 30.208 7.30475C30.7494 7.30475 31.2908 7.30475 31.8322 7.30475C31.9184 7.30475 32.0045 7.30885 32.0947 7.30885C32.226 7.30885 32.0209 7.28014 32.1522 7.31706C32.2055 7.32936 32.2588 7.34167 32.3121 7.35807C32.3449 7.37038 32.3818 7.38268 32.4146 7.39499C32.3531 7.36628 32.3531 7.37038 32.4146 7.39909C32.4598 7.4278 32.509 7.44831 32.5541 7.47702C32.5869 7.49753 32.6854 7.57546 32.6033 7.50573C32.6566 7.55085 32.71 7.60007 32.7592 7.65339C32.7797 7.67389 32.874 7.79694 32.8002 7.6944C32.833 7.73952 32.8617 7.78464 32.8863 7.82975C32.8986 7.84616 32.9766 8.01022 32.952 7.9487C32.9273 7.88717 32.9889 8.05944 32.993 8.07995C33.0094 8.13327 33.0176 8.18659 33.0299 8.24401C33.0094 8.10456 33.0381 8.33014 33.0381 8.35885C33.0422 8.67878 33.317 8.99049 33.6533 8.97409C33.9814 8.95768 34.2727 8.70339 34.2686 8.35885C34.248 7.07917 33.2186 6.07428 31.943 6.07018C31.3647 6.06608 30.7863 6.07018 30.208 6.07018C29.8758 6.07018 29.5928 6.35319 29.5928 6.68542C29.5928 7.73542 29.5928 8.78542 29.5928 9.83542C29.5928 9.98717 29.5928 10.143 29.5928 10.2948C29.7979 10.0897 30.0029 9.88464 30.208 9.67956C29.5928 9.67956 28.9816 9.67956 28.3664 9.67956C26.898 9.67956 25.4338 9.67956 23.9654 9.67956C22.1895 9.67956 20.4176 9.67956 18.6416 9.67956C17.1035 9.67956 15.5613 9.67956 14.0232 9.67956C13.2809 9.67956 12.5221 9.63854 11.7797 9.67956C11.7715 9.67956 11.7592 9.67956 11.751 9.67956C11.9561 9.88464 12.1611 10.0897 12.3662 10.2948C12.3662 9.24479 12.3662 8.19479 12.3662 7.14479C12.3662 6.99303 12.3662 6.83717 12.3662 6.68542C12.3662 6.35319 12.0832 6.07018 11.751 6.07018C11.3695 6.07018 10.9881 6.07018 10.6066 6.07018C10.0611 6.07018 9.54434 6.06198 9.03574 6.29577C8.18672 6.68952 7.73145 7.55905 7.73145 8.4696C7.73145 9.2735 7.73145 10.0815 7.73145 10.8854C7.73145 12.4768 7.73145 14.0641 7.73145 15.6555C7.73145 17.6858 7.73145 19.712 7.73145 21.7423C7.73145 23.8505 7.73145 25.9628 7.73145 28.071C7.73145 29.9003 7.73145 31.7296 7.73145 33.563C7.73145 34.7729 7.73145 35.9788 7.73145 37.1887C7.73145 37.4471 7.73145 37.7014 7.73145 37.9598C7.73555 39.0303 8.43691 40.0434 9.51973 40.2649C9.84785 40.3305 10.1719 40.3223 10.5041 40.3223C11.0045 40.3223 11.5049 40.3223 12.0053 40.3223C13.7033 40.3223 15.4055 40.3223 17.1035 40.3223C19.2158 40.3223 21.3281 40.3223 23.4404 40.3223C25.2943 40.3223 27.1441 40.3223 28.998 40.3223C29.9619 40.3223 30.9258 40.3223 31.8897 40.3223C32.9971 40.3223 34.0389 39.584 34.2275 38.452C34.2727 38.1813 34.2686 37.9229 34.2686 37.6481C34.2686 36.6432 34.2686 35.6383 34.2686 34.6294C34.2686 32.9149 34.2686 31.2005 34.2686 29.4901C34.2686 27.4147 34.2686 25.3352 34.2686 23.2598C34.2686 21.1803 34.2686 19.1008 34.2686 17.0173C34.2686 15.2946 34.2686 13.5678 34.2686 11.8452C34.2686 10.8198 34.2686 9.7944 34.2686 8.77311C34.2686 8.63776 34.2686 8.49831 34.2686 8.36296C34.2686 8.04303 33.9855 7.73131 33.6533 7.74772C33.3211 7.76003 33.0381 8.01432 33.0381 8.35885Z" fill="#0E0F14"/>
<path d="M29.5928 2.29707C29.5928 3.19941 29.5928 4.10176 29.5928 5.0082C29.5928 6.43965 29.5928 7.87109 29.5928 9.30254C29.5928 9.63477 29.5928 9.96289 29.5928 10.2951C29.7979 10.09 30.0029 9.88496 30.208 9.67988C29.5928 9.67988 28.9816 9.67988 28.3664 9.67988C26.898 9.67988 25.4338 9.67988 23.9654 9.67988C22.1895 9.67988 20.4176 9.67988 18.6416 9.67988C17.1035 9.67988 15.5613 9.67988 14.0232 9.67988C13.2809 9.67988 12.5221 9.63887 11.7797 9.67988C11.7715 9.67988 11.7592 9.67988 11.751 9.67988C11.9561 9.88496 12.1611 10.09 12.3662 10.2951C12.3662 9.39277 12.3662 8.49043 12.3662 7.58398C12.3662 6.15254 12.3662 4.72109 12.3662 3.28965C12.3662 2.95742 12.3662 2.6293 12.3662 2.29707C12.1611 2.50215 11.9561 2.70723 11.751 2.9123C12.3662 2.9123 12.9773 2.9123 13.5926 2.9123C15.0609 2.9123 16.5252 2.9123 17.9936 2.9123C19.7695 2.9123 21.5414 2.9123 23.3174 2.9123C24.8555 2.9123 26.3977 2.9123 27.9357 2.9123C28.6822 2.9123 29.4328 2.93691 30.1793 2.9123C30.1875 2.9123 30.1998 2.9123 30.208 2.9123C30.5279 2.9123 30.8397 2.6293 30.8232 2.29707C30.8068 1.96484 30.5525 1.68184 30.208 1.68184C29.5928 1.68184 28.9816 1.68184 28.3664 1.68184C26.898 1.68184 25.4338 1.68184 23.9654 1.68184C22.1895 1.68184 20.4176 1.68184 18.6416 1.68184C17.1035 1.68184 15.5613 1.68184 14.0232 1.68184C13.2768 1.68184 12.5262 1.65723 11.7797 1.68184C11.7715 1.68184 11.7592 1.68184 11.751 1.68184C11.4188 1.68184 11.1357 1.96484 11.1357 2.29707C11.1357 3.19941 11.1357 4.10176 11.1357 5.0082C11.1357 6.43965 11.1357 7.87109 11.1357 9.30254C11.1357 9.63477 11.1357 9.96289 11.1357 10.2951C11.1357 10.6273 11.4188 10.9104 11.751 10.9104C12.3662 10.9104 12.9773 10.9104 13.5926 10.9104C15.0609 10.9104 16.5252 10.9104 17.9936 10.9104C19.7695 10.9104 21.5414 10.9104 23.3174 10.9104C24.8555 10.9104 26.3977 10.9104 27.9357 10.9104C28.6822 10.9104 29.4328 10.935 30.1793 10.9104C30.1875 10.9104 30.1998 10.9104 30.208 10.9104C30.5402 10.9104 30.8232 10.6273 30.8232 10.2951C30.8232 9.39277 30.8232 8.49043 30.8232 7.58398C30.8232 6.15254 30.8232 4.72109 30.8232 3.28965C30.8232 2.95742 30.8232 2.6293 30.8232 2.29707C30.8232 1.97715 30.5402 1.66543 30.208 1.68184C29.8758 1.69824 29.5928 1.95254 29.5928 2.29707ZM29.4451 19.093C28.4689 19.093 27.4928 19.093 26.5166 19.093C24.4248 19.093 22.333 19.093 20.2412 19.093C18.293 19.093 16.3406 19.093 14.3924 19.093C13.8633 19.093 13.3383 19.093 12.8092 19.093C12.723 19.093 12.6369 19.0889 12.5508 19.093C12.5385 19.093 12.5344 19.093 12.5221 19.093C12.5139 19.093 12.5016 19.093 12.4934 19.093C12.5672 19.1053 12.5672 19.1012 12.4975 19.0848C12.4688 19.1094 12.4195 19.0438 12.4975 19.0889C12.4811 19.0807 12.4688 19.0725 12.4523 19.0643C12.3949 19.0273 12.3949 19.0273 12.4523 19.0643C12.4523 19.0602 12.3867 18.9945 12.4441 19.0725C12.4277 19.052 12.3621 18.9084 12.4072 19.0355C12.3949 19.0027 12.3744 18.8551 12.3826 18.9904C12.3785 18.9207 12.3826 18.851 12.3826 18.7771C12.3826 17.8707 12.3826 16.9684 12.3826 16.0619C12.3826 15.3277 12.4072 14.5854 12.3826 13.8512C12.3826 13.8102 12.4072 13.7486 12.3785 13.8471C12.3867 13.8143 12.4523 13.683 12.3867 13.7938C12.4031 13.765 12.4195 13.7322 12.44 13.7035C12.358 13.8102 12.4934 13.7035 12.4236 13.724C12.3457 13.7527 12.4852 13.6871 12.4893 13.683C12.3744 13.7527 12.4852 13.6625 12.5139 13.6789C12.559 13.6707 12.5467 13.6707 12.4852 13.6789C12.5057 13.6789 12.5221 13.6789 12.5426 13.6789C12.5631 13.6789 12.5795 13.6789 12.6 13.6789C12.7395 13.6789 12.8789 13.6789 13.0184 13.6789C13.6336 13.6789 14.2488 13.6789 14.86 13.6789C16.882 13.6789 18.9082 13.6789 20.9303 13.6789C22.9646 13.6789 24.999 13.6789 27.0334 13.6789C27.6609 13.6789 28.2844 13.6789 28.9119 13.6789C29.0637 13.6789 29.2113 13.6789 29.3631 13.6789C29.3877 13.6789 29.4123 13.6789 29.4369 13.6789C29.4574 13.6789 29.4984 13.683 29.4943 13.6789C29.3303 13.6748 29.4984 13.6748 29.4902 13.6871C29.5066 13.6912 29.523 13.6994 29.5395 13.7035C29.4738 13.6748 29.4738 13.6789 29.5354 13.7117C29.5436 13.7158 29.5518 13.7199 29.5559 13.7281C29.5928 13.7527 29.5846 13.7486 29.5354 13.7117C29.5477 13.724 29.56 13.7363 29.5723 13.7486C29.5313 13.6912 29.5313 13.6912 29.5723 13.7486C29.5764 13.7445 29.6338 13.8881 29.5805 13.7445C29.5969 13.7938 29.6092 13.9004 29.6051 13.7896C29.6461 14.4869 29.6051 15.2006 29.6051 15.8979C29.6051 16.8371 29.6051 17.7764 29.6051 18.7156C29.6051 18.7854 29.601 18.8551 29.6051 18.9248C29.6051 18.9781 29.5846 19.0232 29.6092 18.9289C29.601 18.9617 29.5928 18.9986 29.5805 19.0314C29.6256 18.9043 29.56 19.0479 29.5436 19.0684C29.601 18.9904 29.5354 19.0602 29.5354 19.0602C29.5271 19.0479 29.6215 19.0191 29.5148 19.0725C29.5066 19.0766 29.4984 19.0807 29.4902 19.0848C29.5559 19.0602 29.5559 19.0602 29.4902 19.0807C29.4738 19.0848 29.4574 19.0889 29.4369 19.093C29.5189 19.0889 29.5189 19.0889 29.4451 19.093C29.1252 19.1053 28.8135 19.3678 28.8299 19.7082C28.8463 20.0322 29.1006 20.3357 29.4451 20.3234C30.2654 20.2947 30.8356 19.659 30.8397 18.851C30.8397 18.5147 30.8397 18.1783 30.8397 17.8379C30.8397 16.7633 30.8397 15.6928 30.8397 14.6182C30.8397 14.3598 30.8479 14.1014 30.8397 13.8471C30.8191 13.0637 30.2162 12.4648 29.4369 12.4443C29.0965 12.4361 28.7561 12.4443 28.4197 12.4443C26.5904 12.4443 24.7611 12.4443 22.9318 12.4443C20.7252 12.4443 18.5227 12.4443 16.316 12.4443C15.0773 12.4443 13.8428 12.4361 12.6041 12.4443C11.9971 12.4484 11.468 12.7848 11.2465 13.359C11.1316 13.6584 11.1563 13.9947 11.1563 14.3105C11.1563 15.3482 11.1563 16.3818 11.1563 17.4195C11.1563 17.8379 11.1563 18.2563 11.1563 18.6746C11.1563 18.7566 11.1521 18.8387 11.1563 18.9166C11.1686 19.3801 11.3736 19.782 11.7469 20.0568C12.1734 20.3727 12.7025 20.3152 13.1988 20.3152C14.8805 20.3152 16.558 20.3152 18.2396 20.3152C20.4832 20.3152 22.7268 20.3152 24.9703 20.3152C26.3936 20.3152 27.8127 20.3152 29.2359 20.3152C29.3057 20.3152 29.3795 20.3152 29.4492 20.3152C29.7691 20.3152 30.0809 20.0322 30.0645 19.7C30.048 19.3719 29.7897 19.093 29.4451 19.093ZM14.4047 24.5727C13.974 24.5727 13.5434 24.5727 13.1127 24.5727C13.0348 24.5727 12.9527 24.5727 12.8748 24.5727C12.8543 24.5727 12.8379 24.5727 12.8174 24.5727C12.7805 24.5727 12.6697 24.5439 12.7846 24.5727C12.7313 24.5604 12.6779 24.548 12.6287 24.5275C12.7723 24.585 12.4646 24.3922 12.5795 24.4947C12.5385 24.4578 12.5016 24.4209 12.4646 24.3799C12.5426 24.466 12.4688 24.3799 12.4523 24.3512C12.4359 24.3266 12.3867 24.2158 12.4318 24.3266C12.4154 24.2855 12.4031 24.2404 12.3908 24.1953C12.3621 24.101 12.3867 24.3348 12.3826 24.1666C12.3826 24.1297 12.3826 24.0887 12.3826 24.0518C12.3826 23.9041 12.3416 24.1297 12.3949 23.9943C12.3949 23.9984 12.4564 23.8303 12.4195 23.9123C12.3826 23.9943 12.4646 23.8385 12.4646 23.8426C12.5385 23.7031 12.4195 23.8836 12.4811 23.818C12.5139 23.7852 12.5426 23.7564 12.5754 23.7236C12.4893 23.8016 12.5754 23.7277 12.6041 23.7113C12.6287 23.6949 12.7395 23.6457 12.6287 23.6908C12.682 23.6703 12.7313 23.658 12.7846 23.6457C12.6574 23.6785 12.8215 23.6457 12.8543 23.6457C12.8748 23.6457 12.8994 23.6457 12.9199 23.6457C13.0184 23.6457 13.1168 23.6457 13.2152 23.6457C13.4941 23.6457 13.773 23.6457 14.0561 23.6457C14.1463 23.6457 14.2406 23.6457 14.3309 23.6457C14.3514 23.6457 14.376 23.6457 14.3965 23.6457C14.4006 23.6457 14.4006 23.6457 14.4047 23.6457C14.4416 23.6457 14.4785 23.6457 14.5195 23.6498C14.458 23.6416 14.4498 23.6416 14.4949 23.6498C14.54 23.6621 14.5811 23.6744 14.6262 23.6908C14.5072 23.6457 14.6467 23.7113 14.6713 23.7236C14.7984 23.7893 14.6221 23.6498 14.7164 23.7605C14.7287 23.7729 14.8312 23.9041 14.7574 23.7975C14.7902 23.8426 14.8148 23.8877 14.8395 23.9369C14.7902 23.8426 14.8395 23.9533 14.8559 23.9943C14.9092 24.1297 14.8682 23.9 14.8682 24.0518C14.8682 24.0887 14.8682 24.1297 14.8682 24.1666C14.8682 24.3348 14.8887 24.101 14.86 24.1953C14.8518 24.2281 14.7779 24.3922 14.8395 24.2773C14.823 24.3102 14.8025 24.3389 14.7861 24.3717C14.7451 24.4291 14.7451 24.4291 14.7861 24.3758C14.7615 24.4045 14.7369 24.4291 14.7123 24.4537C14.6959 24.4742 14.6221 24.5234 14.7123 24.4578C14.6877 24.4742 14.499 24.5686 14.6221 24.5234C14.5893 24.5357 14.5523 24.5439 14.5195 24.5563C14.4498 24.5686 14.4498 24.5727 14.5195 24.5645C14.4785 24.5727 14.4416 24.5727 14.4047 24.5727C14.0848 24.5809 13.773 24.8516 13.7895 25.1879C13.8059 25.516 14.0602 25.8113 14.4047 25.8031C15.0199 25.7867 15.6146 25.4627 15.8977 24.9008C16.1684 24.3676 16.1602 23.7113 15.832 23.2027C15.5121 22.7147 14.983 22.4275 14.4006 22.4193C14.1504 22.4152 13.9002 22.4193 13.6459 22.4193C13.3834 22.4193 13.125 22.4152 12.8625 22.4193C12.2883 22.4275 11.7838 22.6941 11.4475 23.1617C11.0947 23.6539 11.0742 24.3143 11.3244 24.8557C11.591 25.4217 12.1693 25.7703 12.7846 25.8031C13.3219 25.8318 13.8633 25.8031 14.4006 25.8031C14.7205 25.8031 15.0322 25.5201 15.0158 25.1879C15.0035 24.8557 14.7492 24.5727 14.4047 24.5727ZM21.7752 24.5727C21.3445 24.5727 20.9139 24.5727 20.4832 24.5727C20.4053 24.5727 20.3232 24.5727 20.2453 24.5727C20.2248 24.5727 20.2084 24.5727 20.1879 24.5727C20.151 24.5727 20.0402 24.5439 20.1551 24.5727C20.1018 24.5604 20.0484 24.548 19.9992 24.5275C20.1428 24.585 19.8352 24.3922 19.95 24.4947C19.909 24.4578 19.8721 24.4209 19.8352 24.3799C19.9131 24.466 19.8393 24.3799 19.8229 24.3512C19.8064 24.3266 19.7572 24.2158 19.8023 24.3266C19.7859 24.2855 19.7736 24.2404 19.7613 24.1953C19.7326 24.101 19.7572 24.3348 19.7531 24.1666C19.7531 24.1297 19.7531 24.0887 19.7531 24.0518C19.7531 23.9041 19.7121 24.1297 19.7654 23.9943C19.7654 23.9984 19.827 23.8303 19.79 23.9123C19.7531 23.9943 19.8352 23.8385 19.8352 23.8426C19.909 23.7031 19.79 23.8836 19.8516 23.818C19.8844 23.7852 19.9131 23.7564 19.9459 23.7236C19.8598 23.8016 19.9459 23.7277 19.9746 23.7113C19.9992 23.6949 20.11 23.6457 19.9992 23.6908C20.0525 23.6703 20.1018 23.658 20.1551 23.6457C20.0279 23.6785 20.192 23.6457 20.2248 23.6457C20.2453 23.6457 20.2699 23.6457 20.2904 23.6457C20.3889 23.6457 20.4873 23.6457 20.5857 23.6457C20.8646 23.6457 21.1436 23.6457 21.4266 23.6457C21.5168 23.6457 21.6111 23.6457 21.7014 23.6457C21.7219 23.6457 21.7465 23.6457 21.767 23.6457C21.7711 23.6457 21.7711 23.6457 21.7752 23.6457C21.8121 23.6457 21.849 23.6457 21.89 23.6498C21.8285 23.6416 21.8203 23.6416 21.8654 23.6498C21.9105 23.6621 21.9516 23.6744 21.9967 23.6908C21.8777 23.6457 22.0172 23.7113 22.0418 23.7236C22.1689 23.7893 21.9926 23.6498 22.0869 23.7605C22.0992 23.7729 22.2018 23.9041 22.1279 23.7975C22.1607 23.8426 22.1854 23.8877 22.21 23.9369C22.1607 23.8426 22.21 23.9533 22.2264 23.9943C22.2797 24.1297 22.2387 23.9 22.2387 24.0518C22.2387 24.0887 22.2387 24.1297 22.2387 24.1666C22.2387 24.3348 22.2592 24.101 22.2305 24.1953C22.2223 24.2281 22.1484 24.3922 22.21 24.2773C22.1936 24.3102 22.173 24.3389 22.1566 24.3717C22.1156 24.4291 22.1156 24.4291 22.1566 24.3758C22.132 24.4045 22.1074 24.4291 22.0828 24.4537C22.0664 24.4742 21.9926 24.5234 22.0828 24.4578C22.0582 24.4742 21.8695 24.5686 21.9926 24.5234C21.9598 24.5357 21.9229 24.5439 21.89 24.5563C21.8203 24.5686 21.8203 24.5727 21.89 24.5645C21.8531 24.5727 21.8121 24.5727 21.7752 24.5727C21.4553 24.5809 21.1436 24.8516 21.16 25.1879C21.1764 25.516 21.4307 25.8113 21.7752 25.8031C22.3904 25.7867 22.9852 25.4627 23.2682 24.9008C23.5389 24.3676 23.5307 23.7113 23.2025 23.2027C22.8826 22.7147 22.3535 22.4275 21.7711 22.4193C21.5209 22.4152 21.2707 22.4193 21.0164 22.4193C20.7539 22.4193 20.4955 22.4152 20.233 22.4193C19.6588 22.4275 19.1543 22.6941 18.818 23.1617C18.4652 23.6539 18.4447 24.3143 18.6949 24.8557C18.9615 25.4217 19.5398 25.7703 20.1551 25.8031C20.6924 25.8318 21.2338 25.8031 21.7711 25.8031C22.091 25.8031 22.4027 25.5201 22.3863 25.1879C22.3781 24.8557 22.1197 24.5727 21.7752 24.5727ZM29.1498 24.5727C28.7191 24.5727 28.2885 24.5727 27.8578 24.5727C27.7799 24.5727 27.6979 24.5727 27.6199 24.5727C27.5994 24.5727 27.583 24.5727 27.5625 24.5727C27.5256 24.5727 27.4148 24.5439 27.5297 24.5727C27.4764 24.5604 27.423 24.548 27.3738 24.5275C27.5174 24.585 27.2098 24.3922 27.3246 24.4947C27.2836 24.4578 27.2467 24.4209 27.2098 24.3799C27.2877 24.466 27.2139 24.3799 27.1975 24.3512C27.1811 24.3266 27.1318 24.2158 27.177 24.3266C27.1605 24.2855 27.1482 24.2404 27.1359 24.1953C27.1072 24.101 27.1318 24.3348 27.1277 24.1666C27.1277 24.1297 27.1277 24.0887 27.1277 24.0518C27.1277 23.9041 27.0867 24.1297 27.14 23.9943C27.14 23.9984 27.2016 23.8303 27.1646 23.9123C27.1277 23.9943 27.2098 23.8385 27.2098 23.8426C27.2836 23.7031 27.1646 23.8836 27.2262 23.818C27.259 23.7852 27.2877 23.7564 27.3205 23.7236C27.2344 23.8016 27.3205 23.7277 27.3492 23.7113C27.3738 23.6949 27.4846 23.6457 27.3738 23.6908C27.4272 23.6703 27.4764 23.658 27.5297 23.6457C27.4025 23.6785 27.5666 23.6457 27.5994 23.6457C27.6199 23.6457 27.6445 23.6457 27.665 23.6457C27.7635 23.6457 27.8619 23.6457 27.9604 23.6457C28.2393 23.6457 28.5182 23.6457 28.8012 23.6457C28.8914 23.6457 28.9857 23.6457 29.076 23.6457C29.0965 23.6457 29.1211 23.6457 29.1416 23.6457C29.1457 23.6457 29.1457 23.6457 29.1498 23.6457C29.1867 23.6457 29.2236 23.6457 29.2647 23.6498C29.2031 23.6416 29.1949 23.6416 29.24 23.6498C29.2852 23.6621 29.3262 23.6744 29.3713 23.6908C29.2523 23.6457 29.3918 23.7113 29.4164 23.7236C29.5436 23.7893 29.3672 23.6498 29.4615 23.7605C29.4738 23.7729 29.5764 23.9041 29.5025 23.7975C29.5354 23.8426 29.56 23.8877 29.5846 23.9369C29.5354 23.8426 29.5846 23.9533 29.601 23.9943C29.6543 24.1297 29.6133 23.9 29.6133 24.0518C29.6133 24.0887 29.6133 24.1297 29.6133 24.1666C29.6133 24.3348 29.6338 24.101 29.6051 24.1953C29.5969 24.2281 29.523 24.3922 29.5846 24.2773C29.5682 24.3102 29.5477 24.3389 29.5313 24.3717C29.4902 24.4291 29.4902 24.4291 29.5313 24.3758C29.5066 24.4045 29.482 24.4291 29.4574 24.4537C29.441 24.4742 29.3672 24.5234 29.4574 24.4578C29.4328 24.4742 29.2441 24.5686 29.3672 24.5234C29.3344 24.5357 29.2975 24.5439 29.2647 24.5563C29.1949 24.5686 29.1949 24.5727 29.2647 24.5645C29.2236 24.5727 29.1867 24.5727 29.1498 24.5727C28.8299 24.5809 28.5182 24.8516 28.5346 25.1879C28.551 25.516 28.8053 25.8113 29.1498 25.8031C29.765 25.7867 30.3598 25.4627 30.6428 24.9008C30.9135 24.3676 30.9053 23.7113 30.5772 23.2027C30.2572 22.7147 29.7281 22.4275 29.1457 22.4193C28.8955 22.4152 28.6453 22.4193 28.391 22.4193C28.1285 22.4193 27.8701 22.4152 27.6076 22.4193C27.0334 22.4275 26.5289 22.6941 26.1926 23.1617C25.8398 23.6539 25.8193 24.3143 26.0695 24.8557C26.3361 25.4217 26.9145 25.7703 27.5297 25.8031C28.067 25.8318 28.6084 25.8031 29.1457 25.8031C29.4656 25.8031 29.7773 25.5201 29.7609 25.1879C29.7486 24.8557 29.4943 24.5727 29.1498 24.5727ZM14.4047 29.9252C13.974 29.9252 13.5434 29.9252 13.1127 29.9252C13.0348 29.9252 12.9527 29.9252 12.8748 29.9252C12.8543 29.9252 12.8379 29.9252 12.8174 29.9252C12.7805 29.9252 12.6697 29.8965 12.7846 29.9252C12.7313 29.9129 12.6779 29.9006 12.6287 29.8801C12.7723 29.9375 12.4646 29.7447 12.5795 29.8473C12.5385 29.8104 12.5016 29.7734 12.4646 29.7324C12.5426 29.8186 12.4688 29.7324 12.4523 29.7037C12.4359 29.6791 12.3867 29.5684 12.4318 29.6791C12.4154 29.6381 12.4031 29.593 12.3908 29.5479C12.3621 29.4535 12.3867 29.6873 12.3826 29.5191C12.3826 29.4822 12.3826 29.4412 12.3826 29.4043C12.3826 29.2566 12.3416 29.4822 12.3949 29.3469C12.3949 29.351 12.4564 29.1828 12.4195 29.2648C12.3826 29.3469 12.4646 29.191 12.4646 29.1951C12.5385 29.0557 12.4195 29.2361 12.4811 29.1705C12.5139 29.1377 12.5426 29.109 12.5754 29.0762C12.4893 29.1541 12.5754 29.0803 12.6041 29.0639C12.6287 29.0475 12.7395 28.9982 12.6287 29.0434C12.682 29.0229 12.7313 29.0105 12.7846 28.9982C12.6574 29.0311 12.8215 28.9982 12.8543 28.9982C12.8748 28.9982 12.8994 28.9982 12.9199 28.9982C13.0184 28.9982 13.1168 28.9982 13.2152 28.9982C13.4941 28.9982 13.773 28.9982 14.0561 28.9982C14.1463 28.9982 14.2406 28.9982 14.3309 28.9982C14.3514 28.9982 14.376 28.9982 14.3965 28.9982C14.4006 28.9982 14.4006 28.9982 14.4047 28.9982C14.4416 28.9982 14.4785 28.9982 14.5195 29.0023C14.458 28.9941 14.4498 28.9941 14.4949 29.0023C14.54 29.0147 14.5811 29.027 14.6262 29.0434C14.5072 28.9982 14.6467 29.0639 14.6713 29.0762C14.7984 29.1418 14.6221 29.0023 14.7164 29.1131C14.7287 29.1254 14.8312 29.2566 14.7574 29.15C14.7902 29.1951 14.8148 29.2402 14.8395 29.2895C14.7902 29.1951 14.8395 29.3059 14.8559 29.3469C14.9092 29.4822 14.8682 29.2525 14.8682 29.4043C14.8682 29.4412 14.8682 29.4822 14.8682 29.5191C14.8682 29.6873 14.8887 29.4535 14.86 29.5479C14.8518 29.5807 14.7779 29.7447 14.8395 29.6299C14.823 29.6627 14.8025 29.6914 14.7861 29.7242C14.7451 29.7816 14.7451 29.7816 14.7861 29.7283C14.7615 29.757 14.7369 29.7816 14.7123 29.8063C14.6959 29.8268 14.6221 29.876 14.7123 29.8104C14.6877 29.8268 14.499 29.9211 14.6221 29.876C14.5893 29.8883 14.5523 29.8965 14.5195 29.9088C14.4498 29.9211 14.4498 29.9252 14.5195 29.917C14.4785 29.9252 14.4416 29.9252 14.4047 29.9252C14.0848 29.9334 13.773 30.2041 13.7895 30.5404C13.8059 30.8686 14.0602 31.1639 14.4047 31.1557C15.0199 31.1393 15.6146 30.8152 15.8977 30.2533C16.1684 29.7201 16.1602 29.0639 15.832 28.5553C15.5121 28.0672 14.983 27.7801 14.4006 27.7719C14.1504 27.7678 13.9002 27.7719 13.6459 27.7719C13.3834 27.7719 13.125 27.7678 12.8625 27.7719C12.2883 27.7801 11.7838 28.0467 11.4475 28.5143C11.0947 29.0064 11.0742 29.6668 11.3244 30.2082C11.591 30.7742 12.1693 31.1229 12.7846 31.1557C13.3219 31.1844 13.8633 31.1557 14.4006 31.1557C14.7205 31.1557 15.0322 30.8727 15.0158 30.5404C15.0035 30.2082 14.7492 29.9252 14.4047 29.9252ZM21.7752 29.9252C21.3445 29.9252 20.9139 29.9252 20.4832 29.9252C20.4053 29.9252 20.3232 29.9252 20.2453 29.9252C20.2248 29.9252 20.2084 29.9252 20.1879 29.9252C20.151 29.9252 20.0402 29.8965 20.1551 29.9252C20.1018 29.9129 20.0484 29.9006 19.9992 29.8801C20.1428 29.9375 19.8352 29.7447 19.95 29.8473C19.909 29.8104 19.8721 29.7734 19.8352 29.7324C19.9131 29.8186 19.8393 29.7324 19.8229 29.7037C19.8064 29.6791 19.7572 29.5684 19.8023 29.6791C19.7859 29.6381 19.7736 29.593 19.7613 29.5479C19.7326 29.4535 19.7572 29.6873 19.7531 29.5191C19.7531 29.4822 19.7531 29.4412 19.7531 29.4043C19.7531 29.2566 19.7121 29.4822 19.7654 29.3469C19.7654 29.351 19.827 29.1828 19.79 29.2648C19.7531 29.3469 19.8352 29.191 19.8352 29.1951C19.909 29.0557 19.79 29.2361 19.8516 29.1705C19.8844 29.1377 19.9131 29.109 19.9459 29.0762C19.8598 29.1541 19.9459 29.0803 19.9746 29.0639C19.9992 29.0475 20.11 28.9982 19.9992 29.0434C20.0525 29.0229 20.1018 29.0105 20.1551 28.9982C20.0279 29.0311 20.192 28.9982 20.2248 28.9982C20.2453 28.9982 20.2699 28.9982 20.2904 28.9982C20.3889 28.9982 20.4873 28.9982 20.5857 28.9982C20.8646 28.9982 21.1436 28.9982 21.4266 28.9982C21.5168 28.9982 21.6111 28.9982 21.7014 28.9982C21.7219 28.9982 21.7465 28.9982 21.767 28.9982C21.7711 28.9982 21.7711 28.9982 21.7752 28.9982C21.8121 28.9982 21.849 28.9982 21.89 29.0023C21.8285 28.9941 21.8203 28.9941 21.8654 29.0023C21.9105 29.0147 21.9516 29.027 21.9967 29.0434C21.8777 28.9982 22.0172 29.0639 22.0418 29.0762C22.1689 29.1418 21.9926 29.0023 22.0869 29.1131C22.0992 29.1254 22.2018 29.2566 22.1279 29.15C22.1607 29.1951 22.1854 29.2402 22.21 29.2895C22.1607 29.1951 22.21 29.3059 22.2264 29.3469C22.2797 29.4822 22.2387 29.2525 22.2387 29.4043C22.2387 29.4412 22.2387 29.4822 22.2387 29.5191C22.2387 29.6873 22.2592 29.4535 22.2305 29.5479C22.2223 29.5807 22.1484 29.7447 22.21 29.6299C22.1936 29.6627 22.173 29.6914 22.1566 29.7242C22.1156 29.7816 22.1156 29.7816 22.1566 29.7283C22.132 29.757 22.1074 29.7816 22.0828 29.8063C22.0664 29.8268 21.9926 29.876 22.0828 29.8104C22.0582 29.8268 21.8695 29.9211 21.9926 29.876C21.9598 29.8883 21.9229 29.8965 21.89 29.9088C21.8203 29.9211 21.8203 29.9252 21.89 29.917C21.8531 29.9252 21.8121 29.9252 21.7752 29.9252C21.4553 29.9334 21.1436 30.2041 21.16 30.5404C21.1764 30.8686 21.4307 31.1639 21.7752 31.1557C22.3904 31.1393 22.9852 30.8152 23.2682 30.2533C23.5389 29.7201 23.5307 29.0639 23.2025 28.5553C22.8826 28.0672 22.3535 27.7801 21.7711 27.7719C21.5209 27.7678 21.2707 27.7719 21.0164 27.7719C20.7539 27.7719 20.4955 27.7678 20.233 27.7719C19.6588 27.7801 19.1543 28.0467 18.818 28.5143C18.4652 29.0064 18.4447 29.6668 18.6949 30.2082C18.9615 30.7742 19.5398 31.1229 20.1551 31.1557C20.6924 31.1844 21.2338 31.1557 21.7711 31.1557C22.091 31.1557 22.4027 30.8727 22.3863 30.5404C22.3781 30.2082 22.1197 29.9252 21.7752 29.9252ZM29.1498 29.9252C28.7191 29.9252 28.2885 29.9252 27.8578 29.9252C27.7799 29.9252 27.6979 29.9252 27.6199 29.9252C27.5994 29.9252 27.583 29.9252 27.5625 29.9252C27.5256 29.9252 27.4148 29.8965 27.5297 29.9252C27.4764 29.9129 27.423 29.9006 27.3738 29.8801C27.5174 29.9375 27.2098 29.7447 27.3246 29.8473C27.2836 29.8104 27.2467 29.7734 27.2098 29.7324C27.2877 29.8186 27.2139 29.7324 27.1975 29.7037C27.1811 29.6791 27.1318 29.5684 27.177 29.6791C27.1605 29.6381 27.1482 29.593 27.1359 29.5479C27.1072 29.4535 27.1318 29.6873 27.1277 29.5191C27.1277 29.4822 27.1277 29.4412 27.1277 29.4043C27.1277 29.2566 27.0867 29.4822 27.14 29.3469C27.14 29.351 27.2016 29.1828 27.1646 29.2648C27.1277 29.3469 27.2098 29.191 27.2098 29.1951C27.2836 29.0557 27.1646 29.2361 27.2262 29.1705C27.259 29.1377 27.2877 29.109 27.3205 29.0762C27.2344 29.1541 27.3205 29.0803 27.3492 29.0639C27.3738 29.0475 27.4846 28.9982 27.3738 29.0434C27.4272 29.0229 27.4764 29.0105 27.5297 28.9982C27.4025 29.0311 27.5666 28.9982 27.5994 28.9982C27.6199 28.9982 27.6445 28.9982 27.665 28.9982C27.7635 28.9982 27.8619 28.9982 27.9604 28.9982C28.2393 28.9982 28.5182 28.9982 28.8012 28.9982C28.8914 28.9982 28.9857 28.9982 29.076 28.9982C29.0965 28.9982 29.1211 28.9982 29.1416 28.9982C29.1457 28.9982 29.1457 28.9982 29.1498 28.9982C29.1867 28.9982 29.2236 28.9982 29.2647 29.0023C29.2031 28.9941 29.1949 28.9941 29.24 29.0023C29.2852 29.0147 29.3262 29.027 29.3713 29.0434C29.2523 28.9982 29.3918 29.0639 29.4164 29.0762C29.5436 29.1418 29.3672 29.0023 29.4615 29.1131C29.4738 29.1254 29.5764 29.2566 29.5025 29.15C29.5354 29.1951 29.56 29.2402 29.5846 29.2895C29.5354 29.1951 29.5846 29.3059 29.601 29.3469C29.6543 29.4822 29.6133 29.2525 29.6133 29.4043C29.6133 29.4412 29.6133 29.4822 29.6133 29.5191C29.6133 29.6873 29.6338 29.4535 29.6051 29.5479C29.5969 29.5807 29.523 29.7447 29.5846 29.6299C29.5682 29.6627 29.5477 29.6914 29.5313 29.7242C29.4902 29.7816 29.4902 29.7816 29.5313 29.7283C29.5066 29.757 29.482 29.7816 29.4574 29.8063C29.441 29.8268 29.3672 29.876 29.4574 29.8104C29.4328 29.8268 29.2441 29.9211 29.3672 29.876C29.3344 29.8883 29.2975 29.8965 29.2647 29.9088C29.1949 29.9211 29.1949 29.9252 29.2647 29.917C29.2236 29.9252 29.1867 29.9252 29.1498 29.9252C28.8299 29.9334 28.5182 30.2041 28.5346 30.5404C28.551 30.8686 28.8053 31.1639 29.1498 31.1557C29.765 31.1393 30.3598 30.8152 30.6428 30.2533C30.9135 29.7201 30.9053 29.0639 30.5772 28.5553C30.2572 28.0672 29.7281 27.7801 29.1457 27.7719C28.8955 27.7678 28.6453 27.7719 28.391 27.7719C28.1285 27.7719 27.8701 27.7678 27.6076 27.7719C27.0334 27.7801 26.5289 28.0467 26.1926 28.5143C25.8398 29.0064 25.8193 29.6668 26.0695 30.2082C26.3361 30.7742 26.9145 31.1229 27.5297 31.1557C28.067 31.1844 28.6084 31.1557 29.1457 31.1557C29.4656 31.1557 29.7773 30.8727 29.7609 30.5404C29.7486 30.2082 29.4943 29.9252 29.1498 29.9252ZM14.4047 35.2777C13.974 35.2777 13.5434 35.2777 13.1127 35.2777C13.0348 35.2777 12.9527 35.2777 12.8748 35.2777C12.8543 35.2777 12.8379 35.2777 12.8174 35.2777C12.7805 35.2777 12.6697 35.249 12.7846 35.2777C12.7313 35.2654 12.6779 35.2531 12.6287 35.2326C12.7723 35.29 12.4646 35.0973 12.5795 35.1998C12.5385 35.1629 12.5016 35.126 12.4646 35.085C12.5426 35.1711 12.4688 35.085 12.4523 35.0563C12.4359 35.0316 12.3867 34.9209 12.4318 35.0316C12.4154 34.9906 12.4031 34.9455 12.3908 34.9004C12.3621 34.8061 12.3867 35.0398 12.3826 34.8717C12.3826 34.8348 12.3826 34.7938 12.3826 34.7568C12.3826 34.6092 12.3416 34.8348 12.3949 34.6994C12.3949 34.7035 12.4564 34.5354 12.4195 34.6174C12.3826 34.6994 12.4646 34.5436 12.4646 34.5477C12.5385 34.4082 12.4195 34.5887 12.4811 34.523C12.5139 34.4902 12.5426 34.4615 12.5754 34.4287C12.4893 34.5066 12.5754 34.4328 12.6041 34.4164C12.6287 34.4 12.7395 34.3508 12.6287 34.3959C12.682 34.3754 12.7313 34.3631 12.7846 34.3508C12.6574 34.3836 12.8215 34.3508 12.8543 34.3508C12.8748 34.3508 12.8994 34.3508 12.9199 34.3508C13.0184 34.3508 13.1168 34.3508 13.2152 34.3508C13.4941 34.3508 13.773 34.3508 14.0561 34.3508C14.1463 34.3508 14.2406 34.3508 14.3309 34.3508C14.3514 34.3508 14.376 34.3508 14.3965 34.3508C14.4006 34.3508 14.4006 34.3508 14.4047 34.3508C14.4416 34.3508 14.4785 34.3508 14.5195 34.3549C14.458 34.3467 14.4498 34.3467 14.4949 34.3549C14.54 34.3672 14.5811 34.3795 14.6262 34.3959C14.5072 34.3508 14.6467 34.4164 14.6713 34.4287C14.7984 34.4943 14.6221 34.3549 14.7164 34.4656C14.7287 34.4779 14.8312 34.6092 14.7574 34.5025C14.7902 34.5477 14.8148 34.5928 14.8395 34.642C14.7902 34.5477 14.8395 34.6584 14.8559 34.6994C14.9092 34.8348 14.8682 34.6051 14.8682 34.7568C14.8682 34.7938 14.8682 34.8348 14.8682 34.8717C14.8682 35.0398 14.8887 34.8061 14.86 34.9004C14.8518 34.9332 14.7779 35.0973 14.8395 34.9824C14.823 35.0152 14.8025 35.0439 14.7861 35.0768C14.7451 35.1342 14.7451 35.1342 14.7861 35.0809C14.7615 35.1096 14.7369 35.1342 14.7123 35.1588C14.6959 35.1793 14.6221 35.2285 14.7123 35.1629C14.6877 35.1793 14.499 35.2736 14.6221 35.2285C14.5893 35.2408 14.5523 35.249 14.5195 35.2613C14.4498 35.2736 14.4498 35.2777 14.5195 35.2695C14.4785 35.2777 14.4416 35.2777 14.4047 35.2777C14.0848 35.2859 13.773 35.5566 13.7895 35.893C13.8059 36.2211 14.0602 36.5164 14.4047 36.5082C15.0199 36.4918 15.6146 36.1678 15.8977 35.6059C16.1684 35.0727 16.1602 34.4164 15.832 33.9078C15.5121 33.4197 14.983 33.1326 14.4006 33.1244C14.1504 33.1203 13.9002 33.1244 13.6459 33.1244C13.3834 33.1244 13.125 33.1203 12.8625 33.1244C12.2883 33.1326 11.7838 33.3992 11.4475 33.8668C11.0947 34.359 11.0742 35.0193 11.3244 35.5607C11.591 36.1268 12.1693 36.4754 12.7846 36.5082C13.3219 36.5369 13.8633 36.5082 14.4006 36.5082C14.7205 36.5082 15.0322 36.2252 15.0158 35.893C15.0035 35.5607 14.7492 35.2777 14.4047 35.2777ZM21.7752 35.2777C21.3445 35.2777 20.9139 35.2777 20.4832 35.2777C20.4053 35.2777 20.3232 35.2777 20.2453 35.2777C20.2248 35.2777 20.2084 35.2777 20.1879 35.2777C20.151 35.2777 20.0402 35.249 20.1551 35.2777C20.1018 35.2654 20.0484 35.2531 19.9992 35.2326C20.1428 35.29 19.8352 35.0973 19.95 35.1998C19.909 35.1629 19.8721 35.126 19.8352 35.085C19.9131 35.1711 19.8393 35.085 19.8229 35.0563C19.8064 35.0316 19.7572 34.9209 19.8023 35.0316C19.7859 34.9906 19.7736 34.9455 19.7613 34.9004C19.7326 34.8061 19.7572 35.0398 19.7531 34.8717C19.7531 34.8348 19.7531 34.7938 19.7531 34.7568C19.7531 34.6092 19.7121 34.8348 19.7654 34.6994C19.7654 34.7035 19.827 34.5354 19.79 34.6174C19.7531 34.6994 19.8352 34.5436 19.8352 34.5477C19.909 34.4082 19.79 34.5887 19.8516 34.523C19.8844 34.4902 19.9131 34.4615 19.9459 34.4287C19.8598 34.5066 19.9459 34.4328 19.9746 34.4164C19.9992 34.4 20.11 34.3508 19.9992 34.3959C20.0525 34.3754 20.1018 34.3631 20.1551 34.3508C20.0279 34.3836 20.192 34.3508 20.2248 34.3508C20.2453 34.3508 20.2699 34.3508 20.2904 34.3508C20.3889 34.3508 20.4873 34.3508 20.5857 34.3508C20.8646 34.3508 21.1436 34.3508 21.4266 34.3508C21.5168 34.3508 21.6111 34.3508 21.7014 34.3508C21.7219 34.3508 21.7465 34.3508 21.767 34.3508C21.7711 34.3508 21.7711 34.3508 21.7752 34.3508C21.8121 34.3508 21.849 34.3508 21.89 34.3549C21.8285 34.3467 21.8203 34.3467 21.8654 34.3549C21.9105 34.3672 21.9516 34.3795 21.9967 34.3959C21.8777 34.3508 22.0172 34.4164 22.0418 34.4287C22.1689 34.4943 21.9926 34.3549 22.0869 34.4656C22.0992 34.4779 22.2018 34.6092 22.1279 34.5025C22.1607 34.5477 22.1854 34.5928 22.21 34.642C22.1607 34.5477 22.21 34.6584 22.2264 34.6994C22.2797 34.8348 22.2387 34.6051 22.2387 34.7568C22.2387 34.7938 22.2387 34.8348 22.2387 34.8717C22.2387 35.0398 22.2592 34.8061 22.2305 34.9004C22.2223 34.9332 22.1484 35.0973 22.21 34.9824C22.1936 35.0152 22.173 35.0439 22.1566 35.0768C22.1156 35.1342 22.1156 35.1342 22.1566 35.0809C22.132 35.1096 22.1074 35.1342 22.0828 35.1588C22.0664 35.1793 21.9926 35.2285 22.0828 35.1629C22.0582 35.1793 21.8695 35.2736 21.9926 35.2285C21.9598 35.2408 21.9229 35.249 21.89 35.2613C21.8203 35.2736 21.8203 35.2777 21.89 35.2695C21.8531 35.2777 21.8121 35.2777 21.7752 35.2777C21.4553 35.2859 21.1436 35.5566 21.16 35.893C21.1764 36.2211 21.4307 36.5164 21.7752 36.5082C22.3904 36.4918 22.9852 36.1678 23.2682 35.6059C23.5389 35.0727 23.5307 34.4164 23.2025 33.9078C22.8826 33.4197 22.3535 33.1326 21.7711 33.1244C21.5209 33.1203 21.2707 33.1244 21.0164 33.1244C20.7539 33.1244 20.4955 33.1203 20.233 33.1244C19.6588 33.1326 19.1543 33.3992 18.818 33.8668C18.4652 34.359 18.4447 35.0193 18.6949 35.5607C18.9615 36.1268 19.5398 36.4754 20.1551 36.5082C20.6924 36.5369 21.2338 36.5082 21.7711 36.5082C22.091 36.5082 22.4027 36.2252 22.3863 35.893C22.3781 35.5607 22.1197 35.2777 21.7752 35.2777ZM29.1498 35.2777C28.7191 35.2777 28.2885 35.2777 27.8578 35.2777C27.7799 35.2777 27.6979 35.2777 27.6199 35.2777C27.5994 35.2777 27.583 35.2777 27.5625 35.2777C27.5256 35.2777 27.4148 35.249 27.5297 35.2777C27.4764 35.2654 27.423 35.2531 27.3738 35.2326C27.5174 35.29 27.2098 35.0973 27.3246 35.1998C27.2836 35.1629 27.2467 35.126 27.2098 35.085C27.2877 35.1711 27.2139 35.085 27.1975 35.0563C27.1811 35.0316 27.1318 34.9209 27.177 35.0316C27.1605 34.9906 27.1482 34.9455 27.1359 34.9004C27.1072 34.8061 27.1318 35.0398 27.1277 34.8717C27.1277 34.8348 27.1277 34.7938 27.1277 34.7568C27.1277 34.6092 27.0867 34.8348 27.14 34.6994C27.14 34.7035 27.2016 34.5354 27.1646 34.6174C27.1277 34.6994 27.2098 34.5436 27.2098 34.5477C27.2836 34.4082 27.1646 34.5887 27.2262 34.523C27.259 34.4902 27.2877 34.4615 27.3205 34.4287C27.2344 34.5066 27.3205 34.4328 27.3492 34.4164C27.3738 34.4 27.4846 34.3508 27.3738 34.3959C27.4272 34.3754 27.4764 34.3631 27.5297 34.3508C27.4025 34.3836 27.5666 34.3508 27.5994 34.3508C27.6199 34.3508 27.6445 34.3508 27.665 34.3508C27.7635 34.3508 27.8619 34.3508 27.9604 34.3508C28.2393 34.3508 28.5182 34.3508 28.8012 34.3508C28.8914 34.3508 28.9857 34.3508 29.076 34.3508C29.0965 34.3508 29.1211 34.3508 29.1416 34.3508C29.1457 34.3508 29.1457 34.3508 29.1498 34.3508C29.1867 34.3508 29.2236 34.3508 29.2647 34.3549C29.2031 34.3467 29.1949 34.3467 29.24 34.3549C29.2852 34.3672 29.3262 34.3795 29.3713 34.3959C29.2523 34.3508 29.3918 34.4164 29.4164 34.4287C29.5436 34.4943 29.3672 34.3549 29.4615 34.4656C29.4738 34.4779 29.5764 34.6092 29.5025 34.5025C29.5354 34.5477 29.56 34.5928 29.5846 34.642C29.5354 34.5477 29.5846 34.6584 29.601 34.6994C29.6543 34.8348 29.6133 34.6051 29.6133 34.7568C29.6133 34.7938 29.6133 34.8348 29.6133 34.8717C29.6133 35.0398 29.6338 34.8061 29.6051 34.9004C29.5969 34.9332 29.523 35.0973 29.5846 34.9824C29.5682 35.0152 29.5477 35.0439 29.5313 35.0768C29.4902 35.1342 29.4902 35.1342 29.5313 35.0809C29.5066 35.1096 29.482 35.1342 29.4574 35.1588C29.441 35.1793 29.3672 35.2285 29.4574 35.1629C29.4328 35.1793 29.2441 35.2736 29.3672 35.2285C29.3344 35.2408 29.2975 35.249 29.2647 35.2613C29.1949 35.2736 29.1949 35.2777 29.2647 35.2695C29.2236 35.2777 29.1867 35.2777 29.1498 35.2777C28.8299 35.2859 28.5182 35.5566 28.5346 35.893C28.551 36.2211 28.8053 36.5164 29.1498 36.5082C29.765 36.4918 30.3598 36.1678 30.6428 35.6059C30.9135 35.0727 30.9053 34.4164 30.5772 33.9078C30.2572 33.4197 29.7281 33.1326 29.1457 33.1244C28.8955 33.1203 28.6453 33.1244 28.391 33.1244C28.1285 33.1244 27.8701 33.1203 27.6076 33.1244C27.0334 33.1326 26.5289 33.3992 26.1926 33.8668C25.8398 34.359 25.8193 35.0193 26.0695 35.5607C26.3361 36.1268 26.9145 36.4754 27.5297 36.5082C28.067 36.5369 28.6084 36.5082 29.1457 36.5082C29.4656 36.5082 29.7773 36.2252 29.7609 35.893C29.7486 35.5607 29.4943 35.2777 29.1498 35.2777Z" fill="#0E0F14"/>
</svg>
