<svg width="38" height="34" viewBox="0 0 38 34" fill="none" xmlns="http://www.w3.org/2000/svg">
<path fill-rule="evenodd" clip-rule="evenodd" d="M35.5832 31.2749H1.4165C0.709254 31.2749 0.135254 31.8461 0.135254 32.5499C0.135254 33.2537 0.709254 33.8249 1.4165 33.8249H35.5832C36.2904 33.8249 36.8644 33.2537 36.8644 32.5499C36.8644 31.8461 36.2904 31.2749 35.5832 31.2749Z" fill="#0E0F14"/>
<path fill-rule="evenodd" clip-rule="evenodd" d="M2.69775 13.8497V32.5497C2.69775 33.2535 3.27175 33.8247 3.979 33.8247H33.0207C33.7279 33.8247 34.3019 33.2535 34.3019 32.5497V13.8497C34.3019 13.1459 33.7279 12.5747 33.0207 12.5747C32.3134 12.5747 31.7394 13.1459 31.7394 13.8497V31.2747H5.26025V13.8497C5.26025 13.1459 4.68625 12.5747 3.979 12.5747C3.27175 12.5747 2.69775 13.1459 2.69775 13.8497Z" fill="#0E0F14"/>
<path fill-rule="evenodd" clip-rule="evenodd" d="M27.4688 19.7999C27.4688 19.0961 26.8948 18.5249 26.1875 18.5249H10.8125C10.1053 18.5249 9.53125 19.0961 9.53125 19.7999V32.5499C9.53125 33.2537 10.1053 33.8249 10.8125 33.8249H26.1875C26.8948 33.8249 27.4688 33.2537 27.4688 32.5499V19.7999ZM24.9062 21.0749V31.2749H12.0938V21.0749H24.9062Z" fill="#0E0F14"/>
<path fill-rule="evenodd" clip-rule="evenodd" d="M5.68734 15.1249C8.7538 15.1249 11.2394 12.6514 11.2394 9.5999V7.0499C11.2394 6.3461 10.6654 5.7749 9.95817 5.7749H1.4165C0.709254 5.7749 0.135254 6.3461 0.135254 7.0499V9.5999C0.135254 12.6514 2.62088 15.1249 5.68734 15.1249ZM5.68734 12.5749C4.03709 12.5749 2.69775 11.2438 2.69775 9.5999V8.3249H8.67692V9.5999C8.67692 11.2438 7.33759 12.5749 5.68734 12.5749Z" fill="#0E0F14"/>
<path fill-rule="evenodd" clip-rule="evenodd" d="M14.2288 15.1249C17.2953 15.1249 19.7809 12.6514 19.7809 9.5999V7.0499C19.7809 6.3461 19.2069 5.7749 18.4997 5.7749H9.95801C9.25076 5.7749 8.67676 6.3461 8.67676 7.0499V9.5999C8.67676 12.6514 11.1624 15.1249 14.2288 15.1249ZM14.2288 12.5749C12.5786 12.5749 11.2393 11.2438 11.2393 9.5999V8.3249H17.2184V9.5999C17.2184 11.2438 15.8791 12.5749 14.2288 12.5749Z" fill="#0E0F14"/>
<path fill-rule="evenodd" clip-rule="evenodd" d="M22.7708 15.1249C25.8373 15.1249 28.3229 12.6514 28.3229 9.5999V7.0499C28.3229 6.3461 27.7489 5.7749 27.0417 5.7749H18.5C17.7928 5.7749 17.2188 6.3461 17.2188 7.0499V9.5999C17.2188 12.6514 19.7044 15.1249 22.7708 15.1249ZM22.7708 12.5749C21.1206 12.5749 19.7812 11.2438 19.7812 9.5999V8.3249H25.7604V9.5999C25.7604 11.2438 24.4211 12.5749 22.7708 12.5749Z" fill="#0E0F14"/>
<path fill-rule="evenodd" clip-rule="evenodd" d="M31.3123 15.1249C34.3788 15.1249 36.8644 12.6514 36.8644 9.5999V7.0499C36.8644 6.3461 36.2904 5.7749 35.5832 5.7749H27.0415C26.3343 5.7749 25.7603 6.3461 25.7603 7.0499V9.5999C25.7603 12.6514 28.2459 15.1249 31.3123 15.1249ZM31.3123 12.5749C29.6621 12.5749 28.3228 11.2438 28.3228 9.5999V8.3249H34.3019V9.5999C34.3019 11.2438 32.9626 12.5749 31.3123 12.5749Z" fill="#0E0F14"/>
<path fill-rule="evenodd" clip-rule="evenodd" d="M32.9966 0.735354C32.7625 0.361354 32.3525 0.135254 31.9101 0.135254H6.28508C5.84262 0.135254 5.43262 0.361354 5.19858 0.735354L0.927749 7.53535C0.681749 7.92805 0.668082 8.42275 0.893582 8.82905C1.11908 9.23365 1.54787 9.48525 2.01425 9.48525H36.1809C36.6473 9.48525 37.0761 9.23365 37.3016 8.82905C37.5271 8.42275 37.5134 7.92805 37.2674 7.53535L32.9966 0.735354ZM31.1994 2.68525L33.8695 6.93525H4.32562L6.99575 2.68525H31.1994Z" fill="#0E0F14"/>
<path fill-rule="evenodd" clip-rule="evenodd" d="M17.2188 19.7999V32.5499C17.2188 33.2537 17.7928 33.8249 18.5 33.8249C19.2072 33.8249 19.7812 33.2537 19.7812 32.5499V19.7999C19.7812 19.0961 19.2072 18.5249 18.5 18.5249C17.7928 18.5249 17.2188 19.0961 17.2188 19.7999Z" fill="#0E0F14"/>
</svg>
