<svg width="15" height="14" viewBox="0 0 15 14" fill="none" xmlns="http://www.w3.org/2000/svg">
<path d="M14.1662 1.66951L8.83678 7.00014L14.1662 12.3308C14.5161 12.6807 14.5161 13.2464 14.1662 13.5953C13.9919 13.7697 13.7627 13.8569 13.5336 13.8569C13.3045 13.8569 13.0764 13.7697 12.901 13.5953L7.5715 8.26461L2.24204 13.5953C2.06767 13.7697 1.83851 13.8569 1.6094 13.8569C1.38026 13.8569 1.15222 13.7697 0.976758 13.5953C0.626888 13.2453 0.626888 12.6796 0.976758 12.3308L6.30622 7.00014L0.976758 1.66951C0.626888 1.31956 0.626888 0.75387 0.976758 0.405039C1.32663 0.0550913 1.89219 0.0550913 2.24095 0.405039L7.57041 5.73567L12.8999 0.405039C13.2497 0.0550913 13.8153 0.0550913 14.1641 0.405039C14.5139 0.754986 14.5139 1.32068 14.1641 1.66951H14.1662Z" fill="black"/>
</svg>
