<svg width="39" height="47" viewBox="0 0 39 47" fill="none" xmlns="http://www.w3.org/2000/svg">
<circle cx="19" cy="17" r="8" stroke="url(#paint0_linear_814_472)" stroke-width="4" stroke-linecap="round"/>
<path d="M5 2H33.5C35.1569 2 36.5 3.34315 36.5 5V41.5C36.5 43.1569 35.1569 44.5 33.5 44.5L5.00002 44.5002C3.34316 44.5002 2 43.157 2 41.5002V5C2 3.34315 3.34315 2 5 2Z" stroke="url(#paint1_linear_814_472)" stroke-width="4" stroke-linecap="round"/>
<path d="M19 7C21.1739 7 23.2887 7.70843 25.0239 9.018C26.7592 10.3276 28.0204 12.1669 28.6166 14.2575L24.7543 15.359C24.3975 14.108 23.6428 13.0074 22.6045 12.2238C21.5662 11.4402 20.3008 11.0163 19 11.0163V7Z" fill="white"/>
<defs>
<linearGradient id="paint0_linear_814_472" x1="-0.42118" y1="13.2636" x2="15.9373" y2="14.3432" gradientUnits="userSpaceOnUse">
<stop stop-color="#00AB61"/>
<stop offset="0.473702" stop-color="#4791DB"/>
<stop offset="1" stop-color="#00AB61"/>
</linearGradient>
<linearGradient id="paint1_linear_814_472" x1="-14.2515" y1="15.3101" x2="14.0087" y2="16.8242" gradientUnits="userSpaceOnUse">
<stop stop-color="#00AB61"/>
<stop offset="0.473702" stop-color="#4791DB"/>
<stop offset="1" stop-color="#00AB61"/>
</linearGradient>
</defs>
</svg>
