<svg width="92" height="96" viewBox="0 0 92 96" fill="none" xmlns="http://www.w3.org/2000/svg">
<path d="M71.9642 36.0299C71.8026 35.6084 71.4874 35.2637 71.082 35.0651L47.0234 24.1093C46.8007 24.0077 46.5588 23.9551 46.314 23.9551C46.0692 23.9551 45.8273 24.0077 45.6045 24.1093L21.5451 35.0651C21.2528 35.2097 21.0051 35.431 20.8287 35.7053C20.6522 35.9796 20.5536 36.2967 20.5432 36.6227V66.6485C20.5433 66.9986 20.6507 67.3402 20.8509 67.6274C21.0511 67.9146 21.3345 68.1334 21.6629 68.2546L45.7224 77.1198C46.1056 77.2525 46.5224 77.2525 46.9056 77.1198L70.9642 68.2546C71.2926 68.1335 71.5761 67.9146 71.7763 67.6274C71.9765 67.3402 72.0839 66.9986 72.0839 66.6485C72.0839 66.6485 72.0382 36.217 71.9642 36.0299ZM46.314 27.5469L66.1944 36.601L46.314 45.401L26.4327 36.601L46.314 27.5469ZM23.9659 65.4552V39.252L44.6026 48.387V73.0595L23.9659 65.4552ZM48.0254 73.059V48.387L68.6612 39.2521V65.4552L48.0254 73.059Z" fill="#F89E64"/>
<path d="M85.5735 65.174V33.654C85.5713 32.26 85.2033 30.891 84.5063 29.6838C83.8094 28.4765 82.8078 27.4733 81.6018 26.7743L54.5102 11.1277C54.875 9.94499 54.9801 8.69745 54.8183 7.47039C54.6565 6.24334 54.2315 5.06571 53.5725 4.01808C52.9134 2.97044 52.0359 2.0775 50.9999 1.40035C49.9639 0.723196 48.7938 0.277803 47.5698 0.0946356C46.3457 -0.0885323 45.0965 -0.00515287 43.9077 0.33907C42.7188 0.683294 41.6184 1.28024 40.6815 2.08907C39.7447 2.89791 38.9936 3.89955 38.4797 5.02548C37.9657 6.15141 37.701 7.37507 37.7037 8.61275C37.7158 9.46733 37.8568 10.3152 38.122 11.1277L11.0296 26.7743C9.824 27.4736 8.82291 28.477 8.12628 29.6842C7.42964 30.8914 7.06183 32.2602 7.05954 33.654V65.018C5.70456 65.2658 4.42891 65.8354 3.33986 66.6788C2.25082 67.5222 1.38025 68.6148 0.801358 69.8647C0.222471 71.1146 -0.0477974 72.4853 0.0132847 73.8614C0.0743669 75.2375 0.465013 76.5788 1.15237 77.7725C1.83972 78.9662 2.80368 79.9773 3.96317 80.721C5.12265 81.4646 6.44376 81.9189 7.81537 82.0457C9.18697 82.1724 10.569 81.968 11.8451 81.4495C13.1213 80.931 14.2542 80.1136 15.1487 79.0661L42.3424 94.7711C43.5509 95.467 44.9211 95.8333 46.3158 95.8333C47.7104 95.8333 49.0806 95.467 50.2892 94.7711L77.0805 79.2961C77.9838 80.2795 79.104 81.0387 80.352 81.5134C81.6001 81.9881 82.9416 82.1654 84.2701 82.031C85.5986 81.8967 86.8775 81.4544 88.0052 80.7394C89.1329 80.0244 90.0784 79.0563 90.7666 77.912C91.4548 76.7677 91.8667 75.4788 91.9697 74.1474C92.0726 72.8161 91.8637 71.4792 91.3597 70.2427C90.8556 69.0062 90.0702 67.9043 89.0658 67.0244C88.0614 66.1445 86.8656 65.511 85.5735 65.174ZM46.3165 3.42267C47.6828 3.43818 48.9879 3.99184 49.9486 4.9635C50.9093 5.93516 51.448 7.24644 51.448 8.61283C51.448 9.97922 50.9092 11.2905 49.9485 12.2621C48.9878 13.2338 47.6827 13.7874 46.3164 13.8028C44.9501 13.7873 43.645 13.2337 42.6843 12.262C41.7236 11.2904 41.1849 9.97907 41.1849 8.61268C41.1849 7.24629 41.7237 5.93502 42.6844 4.96339C43.6451 3.99176 44.9502 3.43814 46.3165 3.42267ZM8.65726 78.6593C7.29069 78.6442 5.98523 78.0907 5.02423 77.119C4.06322 76.1473 3.52424 74.8358 3.52426 73.4691C3.52428 72.1025 4.0633 70.791 5.02433 69.8193C5.98536 68.8476 7.29084 68.2942 8.65741 68.2791C10.024 68.2942 11.3294 68.8477 12.2904 69.8194C13.2514 70.7911 13.7904 72.1026 13.7904 73.4693C13.7904 74.8359 13.2514 76.1474 12.2903 77.1191C11.3293 78.0908 10.0238 78.6442 8.65726 78.6593ZM48.5777 91.8079C47.8897 92.2038 47.1099 92.4121 46.3161 92.4121C45.5224 92.4121 44.7425 92.2038 44.0545 91.8079L16.8209 76.0805C17.106 75.2389 17.2573 74.3577 17.2693 73.4692C17.2659 71.5039 16.5911 69.5988 15.3568 68.0694C14.1225 66.5401 12.4026 65.4784 10.4823 65.0602V33.654C10.4835 32.8606 10.6928 32.0813 11.0893 31.3941C11.4858 30.7068 12.0556 30.1356 12.7419 29.7374L39.761 14.1327C40.5578 15.0999 41.5588 15.8788 42.6921 16.4135C43.8255 16.9482 45.0631 17.2256 46.3162 17.2256C47.5694 17.2256 48.807 16.9483 49.9404 16.4136C51.0737 15.8789 52.0747 15.1 52.8715 14.1328L79.8896 29.7374C80.5761 30.1355 81.1462 30.7066 81.543 31.3939C81.9397 32.0811 82.1493 32.8604 82.1508 33.654V64.9809C80.1062 65.2736 78.2353 66.2924 76.88 67.851C75.5247 69.4096 74.7756 71.4039 74.7697 73.4693C74.7789 74.4597 74.961 75.4408 75.3076 76.3686L48.5777 91.8079ZM83.3825 78.6593C82.0159 78.6442 80.7105 78.0907 79.7495 77.119C78.7885 76.1473 78.2495 74.8358 78.2495 73.4692C78.2495 72.1025 78.7886 70.791 79.7496 69.8193C80.7106 68.8477 82.0161 68.2942 83.3827 68.2791C84.7491 68.2945 86.0544 68.848 87.0152 69.8197C87.976 70.7914 88.5149 72.1028 88.5149 73.4693C88.5149 74.8358 87.976 76.1472 87.0151 77.1189C86.0542 78.0905 84.7489 78.6441 83.3825 78.6593Z" fill="#F89E64"/>
</svg>
