<svg width="32" height="32" viewBox="0 0 32 32" fill="none" xmlns="http://www.w3.org/2000/svg">
<path d="M16.0007 1.99707C8.27935 1.99707 1.99805 8.27857 1.99805 15.9996C1.99805 23.7208 8.27935 30.0026 16.0007 30.0026C23.7215 30.0026 30.0033 23.7208 30.0033 15.9996C30.0033 8.27857 23.7215 1.99707 16.0007 1.99707ZM19.9582 10.8366C19.9582 10.9029 19.9319 10.9665 19.885 11.0133C19.8381 11.0602 19.7745 11.0866 19.7082 11.0866L18.1164 11.0876C17.0662 11.0876 16.8742 11.4966 16.8742 12.3021V13.9731H19.6042C19.6759 13.9731 19.7444 14.0041 19.7917 14.0581C19.8389 14.1121 19.8609 14.1838 19.8522 14.2551L19.4634 17.2633C19.4557 17.3236 19.4262 17.379 19.3805 17.4191C19.3349 17.4592 19.2762 17.4813 19.2154 17.4813H16.8742V24.9511C16.8742 25.0174 16.8478 25.081 16.8009 25.1278C16.7541 25.1747 16.6905 25.2011 16.6242 25.2011H13.5181C13.4518 25.2011 13.3882 25.1747 13.3414 25.1278C13.2945 25.081 13.2681 25.0174 13.2681 24.9511V17.4813H10.9194C10.8531 17.4813 10.7895 17.455 10.7426 17.4081C10.6957 17.3612 10.6694 17.2976 10.6694 17.2313V14.2231C10.6694 14.1568 10.6957 14.0932 10.7426 14.0463C10.7895 13.9994 10.8531 13.9731 10.9194 13.9731H13.2681V12.0043C13.2681 9.39682 14.8461 7.77732 17.3869 7.77732C18.4792 7.77732 19.4444 7.85857 19.7409 7.89782C19.801 7.90576 19.8562 7.93526 19.8962 7.98084C19.9361 8.02641 19.9582 8.08496 19.9582 8.14557V10.8366Z" fill="#231F20"/>
</svg>
