<svg width="62" height="128" viewBox="0 0 62 128" fill="none" xmlns="http://www.w3.org/2000/svg">
<path d="M42.7586 82.3154C43.9614 81.007 45.0078 79.4349 45.9355 77.6957L57.4347 85.002C57.7799 85.2228 58.179 85.3304 58.5781 85.3304C58.9072 85.3304 59.2416 85.2497 59.5436 85.0935C60.2178 84.749 60.6601 84.0759 60.7194 83.3276L61.7981 66.8578C61.9492 63.4927 60.7086 60.1598 58.3624 57.7047L52.0949 51.1845C52.343 47.5986 52.3592 45.1327 52.3592 44.8043C52.3592 27.8382 47.9257 16.6723 43.3573 9.65649C43.3303 9.61341 43.3303 9.58649 43.3033 9.5488C43.2764 9.49496 43.2224 9.45189 43.1955 9.40882C41.1783 6.37756 39.1502 4.11625 37.4675 2.54398C33.8483 -0.847992 28.1742 -0.847992 24.5551 2.54398C22.8831 4.09999 20.8819 6.3183 18.8917 9.29566C18.8216 9.37642 18.7514 9.44642 18.6867 9.54333C18.6328 9.62409 18.5896 9.71024 18.5465 9.79101C14.005 16.8065 9.64161 27.9466 9.64161 44.7982C9.64161 45.1266 9.64161 47.5979 9.90591 51.1677L3.63844 57.7148C1.29224 60.1699 0.0462291 63.5027 0.20267 66.911L1.2814 83.3436C1.33534 84.1028 1.77762 84.7649 2.45721 85.1095C2.75926 85.2603 3.09366 85.3464 3.42267 85.3464C3.8218 85.3464 4.22092 85.2387 4.56612 85.018L16.0653 77.7278C17.0038 79.5046 18.0825 81.0929 19.3123 82.4282C19.3123 82.4282 21.04 83.9916 23.6494 83.6567C23.6494 83.6567 34.9268 84.0829 38.4499 83.6567C41.973 83.2305 42.7586 82.3154 42.7586 82.3154ZM55.2712 60.6602C56.803 62.2755 57.6335 64.4668 57.5365 66.6258L56.695 79.4455L47.72 73.7544C49.7912 68.3648 50.9346 62.1193 51.5711 56.816L55.2712 60.6765L55.2712 60.6602ZM27.4887 5.65047C29.4628 3.80376 32.5426 3.80376 34.5328 5.65047C35.6924 6.7273 37.0193 8.18634 38.4001 10.0224C33.7886 12.2137 28.2384 12.2137 23.6382 10.0224C25.0028 8.19186 26.3458 6.74349 27.5055 5.65047H27.4887ZM21.2321 13.6189C24.2418 15.175 27.5696 16.0042 31.0054 16.0042C34.4411 16.0042 37.7689 15.175 40.7678 13.6189C44.5919 20.1231 48.0709 30.0778 48.0709 44.7985C48.0709 44.8792 48.0547 47.6789 47.7418 51.7063C47.7418 51.7871 47.7257 51.8732 47.7257 51.954C47.2295 58.1565 46.0266 67.1323 43.1142 73.7704C43.098 73.8135 43.071 73.8512 43.0602 73.8943C42.1217 76.0048 41.016 77.8785 39.6892 79.3376H22.3053C21.0054 77.9054 19.9051 76.0587 18.9774 73.9912C18.9342 73.8512 18.8803 73.7273 18.8102 73.5927C14.0206 62.4691 13.9344 45.0086 13.9344 44.7881C13.9344 30.0674 17.4025 20.1185 21.2374 13.6086L21.2321 13.6189ZM5.31597 79.4459L4.47455 66.6693C4.37747 64.4618 5.19191 62.2866 6.73985 60.6713L10.4399 56.8109C11.0764 62.1305 12.2198 68.376 14.291 73.7659L5.316 79.4569L5.31597 79.4459Z" fill="#4791DB"/>
<path d="M26.3797 96.9764C25.3115 96.4612 24.0564 96.9222 23.5489 97.9904C23.4688 98.1585 15.4144 115.067 2.68067 123.243C1.6979 123.883 1.39344 125.217 2.0237 126.215C2.43497 126.866 3.11864 127.213 3.813 127.213C4.19756 127.213 4.5928 127.104 4.94532 126.882C18.7253 118.027 27.025 100.577 27.3669 99.8396C27.8743 98.7714 27.4203 97.4808 26.3681 96.9656L26.3797 96.9764Z" fill="#4791DB"/>
<path d="M26.8153 85.3464C25.5498 85.3464 24.5317 86.2568 24.5317 87.3883V90.1553C24.5317 91.2868 25.5498 92.1972 26.8153 92.1972C28.0807 92.1972 29.0988 91.2868 29.0988 90.1553V87.3883C29.0988 86.2568 28.0807 85.3464 26.8153 85.3464Z" fill="#4791DB"/>
<path d="M30.9948 108.973C29.7294 108.973 28.7112 109.884 28.7112 111.015V125.164C28.7112 126.296 29.7294 127.206 30.9948 127.206C32.2603 127.206 33.2784 126.296 33.2784 125.164V111.015C33.2784 109.884 32.2603 108.973 30.9948 108.973Z" fill="#4791DB"/>
<path d="M59.3307 123.235C46.6028 115.061 38.5486 98.1624 38.4625 97.9946C37.9551 96.9268 36.6999 96.4552 35.6317 96.981C34.5795 97.4959 34.1254 98.7859 34.6329 99.8536C34.9747 100.591 43.2749 118.033 57.0544 126.882C57.4123 127.104 57.7915 127.213 58.1868 127.213C58.8864 127.213 59.5808 126.85 59.9761 126.216C60.6063 125.218 60.3019 123.885 59.3191 123.245L59.3307 123.235Z" fill="#4791DB"/>
<path d="M37.4752 90.1553V87.3883C37.4752 86.2568 36.4571 85.3464 35.1916 85.3464C33.9261 85.3464 32.908 86.2568 32.908 87.3883V90.1553C32.908 91.2868 33.9261 92.1972 35.1916 92.1972C36.4571 92.1972 37.4752 91.2868 37.4752 90.1553Z" fill="#4791DB"/>
<path d="M30.9394 41.1964C36.4246 41.1964 40.9026 36.7809 40.9026 31.3556C40.9026 25.9302 36.4384 21.5012 30.9394 21.5012C25.4404 21.5012 20.9898 25.9167 20.9898 31.3556C20.9898 36.7945 25.4541 41.1964 30.9394 41.1964ZM30.9394 25.1059C34.4192 25.1059 37.2579 27.9137 37.2579 31.3555C37.2579 34.7972 34.4191 37.605 30.9394 37.605C27.4596 37.605 24.6208 34.7972 24.6208 31.3555C24.6208 27.9137 27.4596 25.1059 30.9394 25.1059Z" fill="#4791DB"/>
</svg>
