<svg width="22" height="18" viewBox="0 0 22 18" fill="none" xmlns="http://www.w3.org/2000/svg">
<path d="M16.2756 0.0299553C14.855 -0.0849849 13.369 0.290486 12.2703 1.19086C11.6274 1.7167 11.3361 2.19851 11.1033 2.42358C10.8388 2.1209 10.604 1.79428 10.3147 1.51171C9.02588 0.25503 6.93258 -0.337878 4.91765 0.206185C1.87839 1.0261 -0.831184 4.61695 1.44446 8.97622C3.57636 13.0508 9.58661 16.8601 10.5676 17.6141C10.7489 17.7434 10.9242 17.8823 11.1114 18.0039C13.7546 16.0049 21.1389 11.4361 21.5787 6.21392C21.8432 3.24938 19.4437 0.285705 16.2756 0.0299553Z" fill="url(#paint0_linear_1081_1973)"/>
<defs>
<linearGradient id="paint0_linear_1081_1973" x1="5.5" y1="2.49646e-07" x2="18" y2="12.5" gradientUnits="userSpaceOnUse">
<stop stop-color="#993333"/>
<stop offset="0.73394" stop-color="#FF5555"/>
<stop offset="1" stop-color="#993333"/>
</linearGradient>
</defs>
</svg>
