<svg width="29" height="28" viewBox="0 0 29 28" fill="none" xmlns="http://www.w3.org/2000/svg">
<path fill-rule="evenodd" clip-rule="evenodd" d="M14.1601 2.50282C14.0375 2.50288 13.9169 2.53352 13.8092 2.59197L2.67882 8.66766C2.56201 8.73065 2.4644 8.82404 2.39631 8.93795C2.32821 9.05186 2.29217 9.18206 2.29199 9.31477V26.7998C2.29277 26.9951 2.37108 27.182 2.5097 27.3196C2.64831 27.4571 2.83588 27.5339 3.03115 27.5332H25.2876C25.4828 27.5339 25.6704 27.4571 25.809 27.3196C25.9476 27.182 26.0259 26.9951 26.0267 26.7998V9.31477C26.0267 9.1822 25.9908 9.05211 25.923 8.93821C25.8552 8.82431 25.7579 8.73084 25.6413 8.66766L14.511 2.59198C14.4032 2.53353 14.2826 2.50288 14.1601 2.50282ZM14.1631 3.59467L25.0357 9.75482V26.542H21.8238V13.6792C21.823 13.4839 21.7447 13.297 21.6061 13.1594C21.4675 13.0219 21.2799 12.9451 21.0846 12.9458H7.23588C7.04062 12.9451 6.85305 13.0219 6.71444 13.1594C6.57582 13.297 6.49751 13.4839 6.49673 13.6792V26.542H3.28469V9.75482L14.1631 3.59467ZM7.24725 13.6963H21.0733V26.542H19.9353V21.7609C19.9356 21.6641 19.9169 21.5682 19.8802 21.4786C19.8434 21.3891 19.7894 21.3076 19.7211 21.239C19.6529 21.1703 19.5718 21.1158 19.4824 21.0786C19.3931 21.0413 19.2973 21.022 19.2004 21.0218H17.4187V16.7235C17.4191 16.6263 17.4002 16.5301 17.3632 16.4402C17.3262 16.3504 17.2718 16.2687 17.2031 16.2C17.1343 16.1313 17.0527 16.0769 16.9629 16.0399C16.873 16.0029 16.7767 15.984 16.6796 15.9844H11.6407C11.4454 15.9851 11.2585 16.0635 11.1209 16.2021C10.9834 16.3407 10.9066 16.5283 10.9073 16.7235V21.0218H9.1184C8.92313 21.0226 8.73617 21.1009 8.59864 21.2395C8.4611 21.3781 8.38425 21.5657 8.385 21.7609V26.542H7.24713L7.24725 13.6963ZM12.3742 17.4569H13.424V18.3427C13.4236 18.4399 13.4425 18.5362 13.4795 18.6261C13.5165 18.7159 13.5709 18.7975 13.6396 18.8662C13.7083 18.935 13.79 18.9894 13.8798 19.0264C13.9697 19.0634 14.066 19.0823 14.1631 19.0819C14.2598 19.0815 14.3555 19.0621 14.4447 19.0247C14.5339 18.9874 14.6148 18.9328 14.6829 18.8642C14.751 18.7956 14.8049 18.7142 14.8416 18.6247C14.8782 18.5352 14.8969 18.4394 14.8965 18.3427V17.4569H15.9449V21.0218H14.1631H12.3742V17.4569ZM9.85766 22.4958H10.9074V23.3816C10.907 23.4783 10.9257 23.5741 10.9624 23.6636C10.999 23.7531 11.0529 23.8344 11.121 23.9031C11.1891 23.9717 11.2701 24.0263 11.3593 24.0636C11.4485 24.101 11.5441 24.1204 11.6408 24.1208C11.7375 24.1204 11.8332 24.101 11.9224 24.0636C12.0115 24.0263 12.0925 23.9717 12.1606 23.9031C12.2287 23.8344 12.2826 23.7531 12.3193 23.6636C12.3559 23.5741 12.3746 23.4783 12.3742 23.3816V22.4958H13.424V26.542H9.85766V22.4958ZM14.8965 22.4958H15.9449V23.3816C15.9445 23.4784 15.9632 23.5744 15.9999 23.6639C16.0367 23.7535 16.0907 23.8349 16.159 23.9036C16.2272 23.9722 16.3084 24.0268 16.3977 24.064C16.4871 24.1013 16.5829 24.1206 16.6797 24.1208C16.7769 24.1211 16.8732 24.1023 16.963 24.0653C17.0529 24.0283 17.1345 23.9738 17.2032 23.9051C17.2719 23.8364 17.3263 23.7548 17.3634 23.6649C17.4004 23.5751 17.4192 23.4788 17.4188 23.3816V22.4958H18.4614V26.542H14.8964L14.8965 22.4958Z" fill="#FAB68B"/>
<rect x="7.82715" y="15.0181" width="12.7559" height="11.5525" fill="#FEF3EC"/>
<path d="M13.1525 21.757H11.5486V23.0299H10.3932V21.757H8.78931V26.1202H13.1525V21.757Z" fill="#F6863D"/>
<path d="M18.2072 21.757H16.6033V23.0299H15.4479V21.757H13.844V26.1202H18.2072V21.757Z" fill="#F6863D"/>
<path d="M15.8007 16.9435H14.1968V18.2164H13.0414V16.9435H11.4375V21.3067H15.8007V16.9435Z" fill="#F6863D"/>
<path d="M0 7.23154V9.31602C0 9.70047 0.307652 10.0122 0.687126 10.0122H27.4721C27.8516 10.0122 28.1592 9.70047 28.1592 9.31602V7.23154C28.1592 6.96418 28.008 6.72044 27.7703 6.60439L14.3778 0.0689553C14.1894 -0.0229851 13.9698 -0.0229851 13.7814 0.0689553L0.388908 6.60439C0.151152 6.72044 0 6.96418 0 7.23154Z" fill="#F89E64"/>
<path d="M11.8873 5.6319C11.8873 6.66589 12.7264 7.50915 13.7646 7.50915C14.7985 7.50915 15.6418 6.66589 15.6418 5.6319C15.6418 4.59362 14.7985 3.75459 13.7646 3.75459C12.7264 3.75459 11.8873 4.59362 11.8873 5.6319Z" fill="white"/>
</svg>
