<svg width="30" height="17" viewBox="0 0 30 17" fill="none" xmlns="http://www.w3.org/2000/svg">
<path d="M29.3386 14.0677H23.9518V10.8436H28.6235C29.2801 10.8436 29.8149 10.3077 29.8149 9.64991V1.19364C29.8149 0.535808 29.2801 0 28.6235 0H25.3682L22.2586 0.795784H28.6235C28.8419 0.795784 29.0207 0.974831 29.0207 1.19368V9.64995C29.0207 9.86878 28.8419 10.0478 28.6235 10.0478H15.7945C15.5761 10.0478 15.3973 9.86879 15.3973 9.64995V1.19368C15.3973 0.974841 15.5761 0.795784 15.7945 0.795784H22.2586L25.3682 0H15.7945C15.1379 0 14.6031 0.535808 14.6031 1.19364V9.64991C14.6031 10.3077 15.1379 10.8436 15.7945 10.8436H19.9765V14.0677H14.5487V10.2216C14.5487 10.0014 14.3713 9.82368 14.1516 9.82368H11.7329V3.5027C11.7329 3.3462 11.6416 3.20429 11.4986 3.1393C11.3556 3.07564 11.1888 3.10084 11.0723 3.20562L10.5759 3.6486L10.1139 3.18572C10.0398 3.11145 9.93784 3.06901 9.83326 3.06901C9.72868 3.06901 9.62674 3.11145 9.55261 3.18572L9.10648 3.63268L8.66036 3.18572C8.51076 3.03585 8.24731 3.03585 8.09907 3.18572L7.65295 3.63268L7.20682 3.18572C7.05723 3.03585 6.79377 3.03585 6.64554 3.18572L6.18352 3.6486L5.6871 3.20562C5.5706 3.10084 5.4038 3.07564 5.26083 3.1393C5.11786 3.20297 5.02651 3.3462 5.02651 3.5027V9.82368H3.69078C3.52795 9.82368 3.38232 9.92315 3.32144 10.073L1.72493 14.0679H0.661903C0.296536 14.0679 0 14.365 0 14.731V16.3355C0 16.7016 0.296536 16.9987 0.661903 16.9987H4.25592L10.9715 14.8636H0.794074H1.99079H1.99212H1.99344H10.9688H10.9702H10.9715L4.25592 16.9987L29.3381 17C29.7035 17 30 16.7029 30 16.3369V14.731C30 14.3663 29.704 14.0677 29.3386 14.0677ZM13.7547 14.0677H11.5571L12.9352 10.6195H13.7547V14.0677ZM5.81969 4.38985L5.93486 4.49197C6.0924 4.63256 6.3307 4.62593 6.48029 4.47606L6.92641 4.02911L7.37254 4.47606C7.52213 4.62593 7.78559 4.6246 7.93382 4.47606L8.37995 4.02911L8.82607 4.47606C8.98096 4.63123 9.23248 4.63123 9.38736 4.47606L9.83348 4.02911L10.2796 4.47606C10.4292 4.62593 10.6688 4.63256 10.825 4.49197L10.9402 4.38985V9.82365H5.81979L5.81969 4.38985ZM3.95839 10.6195H12.0801L10.702 14.0677H2.58029L3.95839 10.6195ZM20.7695 14.0677V10.8436H23.1563V14.0677H20.7695Z" fill="#4E846C"/>
</svg>
