<svg width="30" height="30" viewBox="0 0 30 30" fill="none" xmlns="http://www.w3.org/2000/svg">
<path d="M23.5986 5.97054C23.5986 6.36019 23.5986 6.75277 23.5986 7.14242C23.5986 8.14144 23.5986 9.14046 23.5986 10.1424C23.5986 11.5194 23.5986 12.8963 23.5986 14.2703C23.5986 15.7674 23.5986 17.2645 23.5986 18.7616C23.5986 20.1385 23.5986 21.5184 23.5986 22.8953C23.5986 23.909 23.5986 24.9256 23.5986 25.9393C23.5986 26.3465 23.6045 26.7537 23.5986 27.161C23.5986 27.1756 23.5986 27.1815 23.5986 27.202C23.5986 27.2284 23.5957 27.2547 23.5928 27.284C23.6016 27.1961 23.5898 27.2811 23.5869 27.3045C23.5752 27.3631 23.5576 27.4188 23.5371 27.4744C23.5664 27.3983 23.543 27.4598 23.5342 27.4744C23.5107 27.5125 23.4902 27.5535 23.4668 27.5916C23.4551 27.6121 23.4023 27.6766 23.4551 27.6121C23.4375 27.6326 23.4229 27.6502 23.4053 27.6707C23.3848 27.6942 23.3584 27.7147 23.3379 27.7381C23.3232 27.7528 23.2559 27.8026 23.3232 27.7528C23.2822 27.7821 23.2383 27.8114 23.1943 27.8348C23.1826 27.8407 23.0684 27.8905 23.1592 27.8553C23.124 27.87 23.0859 27.8817 23.0479 27.8934C23.0215 27.8993 22.998 27.9051 22.9717 27.911C22.8516 27.9403 23.0244 27.911 22.9482 27.9139C22.9131 27.9168 22.8809 27.9168 22.8457 27.9198C22.8428 27.9198 22.8398 27.9198 22.8369 27.9198C22.8164 27.9198 22.7959 27.9198 22.7783 27.9198C22.5381 27.9198 22.3008 27.9198 22.0605 27.9198C21.0117 27.9198 19.96 27.9198 18.9111 27.9198C17.4521 27.9198 15.9961 27.9198 14.5371 27.9198C13.1338 27.9198 11.7305 27.9198 10.3271 27.9198C9.40723 27.9198 8.4873 27.9198 7.56738 27.9198C7.43262 27.9198 7.29785 27.9227 7.16309 27.9198C7.12793 27.9198 7.0957 27.9168 7.06055 27.9139C6.9873 27.908 7.15723 27.9403 7.03711 27.911C6.97852 27.8963 6.92285 27.8817 6.86719 27.8612C6.7998 27.8377 6.95215 27.911 6.84668 27.8524C6.82324 27.8407 6.7998 27.8289 6.7793 27.8143C6.75293 27.7967 6.72363 27.7791 6.69727 27.7616C6.6709 27.744 6.67676 27.7469 6.70898 27.7733C6.69434 27.7616 6.67969 27.7498 6.66504 27.7352C6.62402 27.6942 6.58301 27.6561 6.54492 27.6121C6.59766 27.6766 6.54492 27.6121 6.5332 27.5916C6.51563 27.5653 6.49805 27.536 6.4834 27.5096C6.47168 27.4862 6.45996 27.4627 6.44824 27.4393C6.4834 27.5155 6.44824 27.4393 6.44238 27.4188C6.43359 27.3866 6.42188 27.3573 6.41602 27.325C6.41016 27.3045 6.39551 27.1903 6.4043 27.284C6.39844 27.2196 6.39844 27.158 6.39844 27.0965C6.39844 26.5457 6.39844 25.995 6.39844 25.4442C6.39844 24.3368 6.39844 23.2264 6.39844 22.119C6.39844 20.6981 6.39844 19.2743 6.39844 17.8534C6.39844 16.3563 6.39844 14.8621 6.39844 13.3651C6.39844 12.0526 6.39844 10.7401 6.39844 9.42757C6.39844 8.52816 6.39844 7.62581 6.39844 6.7264C6.39844 6.51253 6.39844 6.29867 6.39844 6.08187C6.39844 6.04671 6.39844 6.00863 6.39844 5.97347C6.39844 5.94417 6.40137 5.91781 6.40137 5.88851C6.4043 5.80355 6.4043 5.86507 6.39844 5.88558C6.4043 5.85335 6.41016 5.82113 6.41895 5.7889C6.42773 5.75667 6.43945 5.72738 6.44824 5.69515C6.47754 5.58968 6.41016 5.75081 6.46582 5.65706C6.49805 5.6014 6.52734 5.54574 6.56543 5.493C6.51563 5.56038 6.60059 5.45785 6.62109 5.43734C6.64453 5.4139 6.66797 5.39339 6.69141 5.37288C6.74414 5.32601 6.60645 5.42269 6.70898 5.36117C6.76465 5.32894 6.81738 5.29378 6.87598 5.26742C6.78809 5.30843 6.90234 5.25863 6.91699 5.2557C6.94336 5.24691 6.9668 5.24105 6.99316 5.23519C7.01953 5.22933 7.0459 5.22347 7.07227 5.22054C6.98437 5.23519 7.07227 5.22347 7.0957 5.22054C7.13379 5.21761 7.17188 5.21761 7.20996 5.21761C7.34473 5.21761 7.48242 5.21761 7.61719 5.21761C7.875 5.21761 8.13281 5.21761 8.39355 5.21761C8.24707 5.07113 8.10059 4.92464 7.9541 4.77816C7.9541 5.52816 7.9541 6.27816 7.9541 7.02816C7.9541 7.13656 7.9541 7.24788 7.9541 7.35628C7.9541 7.59359 8.15625 7.79574 8.39355 7.79574C8.83301 7.79574 9.26953 7.79574 9.70898 7.79574C10.7578 7.79574 11.8037 7.79574 12.8525 7.79574C14.1211 7.79574 15.3867 7.79574 16.6553 7.79574C17.7539 7.79574 18.8555 7.79574 19.9541 7.79574C20.4873 7.79574 21.0234 7.81331 21.5566 7.79574C21.5625 7.79574 21.5713 7.79574 21.5772 7.79574C21.8145 7.79574 22.0166 7.59359 22.0166 7.35628C22.0166 6.60628 22.0166 5.85628 22.0166 5.10628C22.0166 4.99788 22.0166 4.88656 22.0166 4.77816C21.8701 4.92464 21.7236 5.07113 21.5772 5.21761C21.9639 5.21761 22.3506 5.21761 22.7373 5.21761C22.7988 5.21761 22.8604 5.22054 22.9248 5.22054C23.0186 5.22054 22.8721 5.20003 22.9658 5.2264C23.0039 5.23519 23.042 5.24398 23.0801 5.2557C23.1035 5.26449 23.1299 5.27327 23.1533 5.28206C23.1094 5.26156 23.1094 5.26449 23.1533 5.28499C23.1855 5.3055 23.2207 5.32015 23.2529 5.34066C23.2764 5.35531 23.3467 5.41097 23.2881 5.36117C23.3262 5.39339 23.3643 5.42855 23.3994 5.46663C23.4141 5.48128 23.4814 5.56917 23.4287 5.49593C23.4522 5.52816 23.4727 5.56038 23.4902 5.59261C23.499 5.60433 23.5547 5.72152 23.5371 5.67757C23.5195 5.63363 23.5635 5.75667 23.5664 5.77132C23.5781 5.80941 23.584 5.84749 23.5928 5.88851C23.5781 5.7889 23.5986 5.95003 23.5986 5.97054C23.6016 6.19906 23.7979 6.42171 24.0381 6.40999C24.2725 6.39827 24.4805 6.21663 24.4775 5.97054C24.4629 5.05648 23.7275 4.3387 22.8164 4.33577C22.4033 4.33285 21.9902 4.33577 21.5772 4.33577C21.3398 4.33577 21.1377 4.53792 21.1377 4.77523C21.1377 5.52523 21.1377 6.27523 21.1377 7.02523C21.1377 7.13363 21.1377 7.24495 21.1377 7.35335C21.2842 7.20687 21.4307 7.06038 21.5772 6.9139C21.1377 6.9139 20.7012 6.9139 20.2617 6.9139C19.2129 6.9139 18.167 6.9139 17.1182 6.9139C15.8496 6.9139 14.584 6.9139 13.3154 6.9139C12.2168 6.9139 11.1152 6.9139 10.0166 6.9139C9.48633 6.9139 8.94434 6.8846 8.41406 6.9139C8.4082 6.9139 8.39941 6.9139 8.39355 6.9139C8.54004 7.06038 8.68652 7.20687 8.83301 7.35335C8.83301 6.60335 8.83301 5.85335 8.83301 5.10335C8.83301 4.99495 8.83301 4.88363 8.83301 4.77523C8.83301 4.53792 8.63086 4.33577 8.39355 4.33577C8.12109 4.33577 7.84863 4.33577 7.57617 4.33577C7.18652 4.33577 6.81738 4.32992 6.4541 4.49691C5.84766 4.77816 5.52246 5.39925 5.52246 6.04964C5.52246 6.62386 5.52246 7.20101 5.52246 7.77523C5.52246 8.91195 5.52246 10.0457 5.52246 11.1825C5.52246 12.6327 5.52246 14.0799 5.52246 15.5301C5.52246 17.036 5.52246 18.5448 5.52246 20.0506C5.52246 21.3573 5.52246 22.6639 5.52246 23.9735C5.52246 24.8377 5.52246 25.6991 5.52246 26.5633C5.52246 26.7479 5.52246 26.9295 5.52246 27.1141C5.52539 27.8787 6.02637 28.6024 6.7998 28.7606C7.03418 28.8075 7.26563 28.8016 7.50293 28.8016C7.86035 28.8016 8.21777 28.8016 8.5752 28.8016C9.78809 28.8016 11.0039 28.8016 12.2168 28.8016C13.7256 28.8016 15.2344 28.8016 16.7432 28.8016C18.0674 28.8016 19.3887 28.8016 20.7129 28.8016C21.4014 28.8016 22.0898 28.8016 22.7783 28.8016C23.5693 28.8016 24.3135 28.2743 24.4482 27.4657C24.4805 27.2723 24.4775 27.0877 24.4775 26.8914C24.4775 26.1737 24.4775 25.4559 24.4775 24.7352C24.4775 23.5106 24.4775 22.286 24.4775 21.0643C24.4775 19.5819 24.4775 18.0965 24.4775 16.6141C24.4775 15.1287 24.4775 13.6434 24.4775 12.1551C24.4775 10.9246 24.4775 9.69124 24.4775 8.46077C24.4775 7.72835 24.4775 6.99593 24.4775 6.26644C24.4775 6.16976 24.4775 6.07015 24.4775 5.97347C24.4775 5.74495 24.2754 5.5223 24.0381 5.53402C23.8008 5.54281 23.5986 5.72445 23.5986 5.97054Z" fill="#6D7085"/>
<path d="M21.1377 1.64063C21.1377 2.28516 21.1377 2.92969 21.1377 3.57715C21.1377 4.59961 21.1377 5.62207 21.1377 6.64453C21.1377 6.88184 21.1377 7.11621 21.1377 7.35352C21.2842 7.20703 21.4307 7.06055 21.5771 6.91406C21.1377 6.91406 20.7012 6.91406 20.2617 6.91406C19.2129 6.91406 18.167 6.91406 17.1182 6.91406C15.8496 6.91406 14.584 6.91406 13.3154 6.91406C12.2168 6.91406 11.1152 6.91406 10.0166 6.91406C9.48633 6.91406 8.94434 6.88477 8.41406 6.91406C8.4082 6.91406 8.39941 6.91406 8.39355 6.91406C8.54004 7.06055 8.68652 7.20703 8.83301 7.35352C8.83301 6.70898 8.83301 6.06445 8.83301 5.41699C8.83301 4.39453 8.83301 3.37207 8.83301 2.34961C8.83301 2.1123 8.83301 1.87793 8.83301 1.64063C8.68652 1.78711 8.54004 1.93359 8.39355 2.08008C8.83301 2.08008 9.26953 2.08008 9.70898 2.08008C10.7578 2.08008 11.8037 2.08008 12.8525 2.08008C14.1211 2.08008 15.3867 2.08008 16.6553 2.08008C17.7539 2.08008 18.8555 2.08008 19.9541 2.08008C20.4873 2.08008 21.0234 2.09766 21.5566 2.08008C21.5625 2.08008 21.5713 2.08008 21.5771 2.08008C21.8057 2.08008 22.0283 1.87793 22.0166 1.64063C22.0049 1.40332 21.8232 1.20117 21.5771 1.20117C21.1377 1.20117 20.7012 1.20117 20.2617 1.20117C19.2129 1.20117 18.167 1.20117 17.1182 1.20117C15.8496 1.20117 14.584 1.20117 13.3154 1.20117C12.2168 1.20117 11.1152 1.20117 10.0166 1.20117C9.4834 1.20117 8.94727 1.18359 8.41406 1.20117C8.4082 1.20117 8.39941 1.20117 8.39355 1.20117C8.15625 1.20117 7.9541 1.40332 7.9541 1.64063C7.9541 2.28516 7.9541 2.92969 7.9541 3.57715C7.9541 4.59961 7.9541 5.62207 7.9541 6.64453C7.9541 6.88184 7.9541 7.11621 7.9541 7.35352C7.9541 7.59082 8.15625 7.79297 8.39355 7.79297C8.83301 7.79297 9.26953 7.79297 9.70898 7.79297C10.7578 7.79297 11.8037 7.79297 12.8525 7.79297C14.1211 7.79297 15.3867 7.79297 16.6553 7.79297C17.7539 7.79297 18.8555 7.79297 19.9541 7.79297C20.4873 7.79297 21.0234 7.81055 21.5566 7.79297C21.5625 7.79297 21.5713 7.79297 21.5771 7.79297C21.8145 7.79297 22.0166 7.59082 22.0166 7.35352C22.0166 6.70898 22.0166 6.06445 22.0166 5.41699C22.0166 4.39453 22.0166 3.37207 22.0166 2.34961C22.0166 2.1123 22.0166 1.87793 22.0166 1.64063C22.0166 1.41211 21.8145 1.18945 21.5771 1.20117C21.3398 1.21289 21.1377 1.39453 21.1377 1.64063ZM21.0322 13.6377C20.335 13.6377 19.6377 13.6377 18.9404 13.6377C17.4463 13.6377 15.9521 13.6377 14.458 13.6377C13.0664 13.6377 11.6719 13.6377 10.2803 13.6377C9.90234 13.6377 9.52734 13.6377 9.14941 13.6377C9.08789 13.6377 9.02637 13.6348 8.96484 13.6377C8.95605 13.6377 8.95312 13.6377 8.94434 13.6377C8.93848 13.6377 8.92969 13.6377 8.92383 13.6377C8.97656 13.6465 8.97656 13.6436 8.92676 13.6318C8.90625 13.6494 8.87109 13.6025 8.92676 13.6348C8.91504 13.6289 8.90625 13.623 8.89453 13.6172C8.85352 13.5908 8.85352 13.5908 8.89453 13.6172C8.89453 13.6143 8.84766 13.5674 8.88867 13.623C8.87695 13.6084 8.83008 13.5059 8.8623 13.5967C8.85352 13.5732 8.83887 13.4678 8.84473 13.5645C8.8418 13.5146 8.84473 13.4648 8.84473 13.4121C8.84473 12.7646 8.84473 12.1201 8.84473 11.4727C8.84473 10.9482 8.8623 10.418 8.84473 9.89356C8.84473 9.86426 8.8623 9.82031 8.8418 9.89063C8.84766 9.86719 8.89453 9.77344 8.84766 9.85254C8.85938 9.83203 8.87109 9.80859 8.88574 9.78809C8.82715 9.86426 8.92383 9.78809 8.87402 9.80274C8.81836 9.82324 8.91797 9.77637 8.9209 9.77344C8.83887 9.82324 8.91797 9.75879 8.93848 9.77051C8.9707 9.76465 8.96191 9.76465 8.91797 9.77051C8.93262 9.77051 8.94434 9.77051 8.95898 9.77051C8.97363 9.77051 8.98535 9.77051 9 9.77051C9.09961 9.77051 9.19922 9.77051 9.29883 9.77051C9.73828 9.77051 10.1777 9.77051 10.6143 9.77051C12.0586 9.77051 13.5059 9.77051 14.9502 9.77051C16.4033 9.77051 17.8564 9.77051 19.3096 9.77051C19.7578 9.77051 20.2031 9.77051 20.6514 9.77051C20.7598 9.77051 20.8652 9.77051 20.9736 9.77051C20.9912 9.77051 21.0088 9.77051 21.0264 9.77051C21.041 9.77051 21.0703 9.77344 21.0674 9.77051C20.9502 9.76758 21.0703 9.76758 21.0645 9.77637C21.0762 9.7793 21.0879 9.78516 21.0996 9.78809C21.0527 9.76758 21.0527 9.77051 21.0967 9.79395C21.1025 9.79688 21.1084 9.79981 21.1113 9.80567C21.1377 9.82324 21.1318 9.82031 21.0967 9.79395C21.1055 9.80273 21.1143 9.81152 21.123 9.82031C21.0938 9.7793 21.0938 9.7793 21.123 9.82031C21.126 9.81738 21.167 9.91992 21.1289 9.81738C21.1406 9.85254 21.1494 9.92871 21.1465 9.84961C21.1758 10.3477 21.1465 10.8574 21.1465 11.3555C21.1465 12.0264 21.1465 12.6973 21.1465 13.3682C21.1465 13.418 21.1436 13.4678 21.1465 13.5176C21.1465 13.5557 21.1318 13.5879 21.1494 13.5205C21.1436 13.5439 21.1377 13.5703 21.1289 13.5938C21.1611 13.5029 21.1143 13.6055 21.1025 13.6201C21.1436 13.5645 21.0967 13.6143 21.0967 13.6143C21.0908 13.6055 21.1582 13.585 21.082 13.623C21.0762 13.626 21.0703 13.6289 21.0645 13.6318C21.1113 13.6143 21.1113 13.6143 21.0645 13.6289C21.0527 13.6318 21.041 13.6348 21.0264 13.6377C21.085 13.6348 21.085 13.6348 21.0322 13.6377C20.8037 13.6465 20.5811 13.834 20.5928 14.0771C20.6045 14.3086 20.7861 14.5254 21.0322 14.5166C21.6182 14.4961 22.0254 14.042 22.0283 13.4648C22.0283 13.2246 22.0283 12.9844 22.0283 12.7412C22.0283 11.9736 22.0283 11.209 22.0283 10.4414C22.0283 10.2568 22.0342 10.0723 22.0283 9.89063C22.0137 9.33106 21.583 8.90332 21.0264 8.88867C20.7832 8.88281 20.54 8.88867 20.2998 8.88867C18.9932 8.88867 17.6865 8.88867 16.3799 8.88867C14.8037 8.88867 13.2305 8.88867 11.6543 8.88867C10.7695 8.88867 9.8877 8.88281 9.00293 8.88867C8.56934 8.8916 8.19141 9.13184 8.0332 9.54199C7.95117 9.75586 7.96875 9.99609 7.96875 10.2217C7.96875 10.9629 7.96875 11.7012 7.96875 12.4424C7.96875 12.7412 7.96875 13.04 7.96875 13.3389C7.96875 13.3975 7.96582 13.4561 7.96875 13.5117C7.97754 13.8428 8.12402 14.1299 8.39062 14.3262C8.69531 14.5518 9.07324 14.5107 9.42773 14.5107C10.6289 14.5107 11.8271 14.5107 13.0283 14.5107C14.6309 14.5107 16.2334 14.5107 17.8359 14.5107C18.8525 14.5107 19.8662 14.5107 20.8828 14.5107C20.9326 14.5107 20.9854 14.5107 21.0352 14.5107C21.2637 14.5107 21.4863 14.3086 21.4746 14.0713C21.4629 13.8369 21.2783 13.6377 21.0322 13.6377ZM10.2891 17.5518C9.98145 17.5518 9.67383 17.5518 9.36621 17.5518C9.31055 17.5518 9.25195 17.5518 9.19629 17.5518C9.18164 17.5518 9.16992 17.5518 9.15527 17.5518C9.12891 17.5518 9.04981 17.5312 9.13184 17.5518C9.09375 17.543 9.05566 17.5342 9.02051 17.5195C9.12305 17.5605 8.90332 17.4229 8.98535 17.4961C8.95606 17.4697 8.92969 17.4434 8.90332 17.4141C8.95898 17.4756 8.90625 17.4141 8.89453 17.3936C8.88281 17.376 8.84766 17.2969 8.87988 17.376C8.86816 17.3467 8.85938 17.3145 8.85059 17.2822C8.83008 17.2148 8.84766 17.3818 8.84473 17.2617C8.84473 17.2354 8.84473 17.2061 8.84473 17.1797C8.84473 17.0742 8.81543 17.2354 8.85352 17.1387C8.85352 17.1416 8.89746 17.0215 8.87109 17.0801C8.84473 17.1387 8.90332 17.0273 8.90332 17.0303C8.95605 16.9307 8.87109 17.0596 8.91504 17.0127C8.93848 16.9893 8.95898 16.9688 8.98242 16.9453C8.9209 17.001 8.98242 16.9482 9.00293 16.9365C9.02051 16.9248 9.09961 16.8896 9.02051 16.9219C9.05859 16.9072 9.09375 16.8984 9.13184 16.8896C9.04102 16.9131 9.1582 16.8896 9.18164 16.8896C9.19629 16.8896 9.21387 16.8896 9.22852 16.8896C9.29883 16.8896 9.36914 16.8896 9.43945 16.8896C9.63867 16.8896 9.83789 16.8896 10.04 16.8896C10.1045 16.8896 10.1719 16.8896 10.2363 16.8896C10.251 16.8896 10.2686 16.8896 10.2832 16.8896C10.2861 16.8896 10.2861 16.8896 10.2891 16.8896C10.3154 16.8896 10.3418 16.8896 10.3711 16.8926C10.3271 16.8867 10.3213 16.8867 10.3535 16.8926C10.3857 16.9014 10.415 16.9102 10.4473 16.9219C10.3623 16.8896 10.4619 16.9365 10.4795 16.9453C10.5703 16.9922 10.4443 16.8926 10.5117 16.9717C10.5205 16.9805 10.5937 17.0742 10.541 16.998C10.5645 17.0303 10.582 17.0625 10.5996 17.0977C10.5645 17.0303 10.5996 17.1094 10.6113 17.1387C10.6494 17.2354 10.6201 17.0713 10.6201 17.1797C10.6201 17.2061 10.6201 17.2354 10.6201 17.2617C10.6201 17.3818 10.6348 17.2148 10.6143 17.2822C10.6084 17.3057 10.5557 17.4229 10.5996 17.3408C10.5879 17.3643 10.5732 17.3848 10.5615 17.4082C10.5322 17.4492 10.5322 17.4492 10.5615 17.4111C10.5439 17.4316 10.5264 17.4492 10.5088 17.4668C10.4971 17.4814 10.4443 17.5166 10.5088 17.4697C10.4912 17.4814 10.3564 17.5488 10.4443 17.5166C10.4209 17.5254 10.3945 17.5313 10.3711 17.54C10.3213 17.5488 10.3213 17.5518 10.3711 17.5459C10.3418 17.5518 10.3154 17.5518 10.2891 17.5518C10.0605 17.5576 9.83789 17.751 9.84961 17.9912C9.86133 18.2256 10.043 18.4365 10.2891 18.4307C10.7285 18.4189 11.1533 18.1875 11.3555 17.7861C11.5488 17.4053 11.543 16.9365 11.3086 16.5732C11.0801 16.2246 10.7021 16.0195 10.2861 16.0137C10.1074 16.0107 9.92871 16.0137 9.74707 16.0137C9.55957 16.0137 9.375 16.0107 9.1875 16.0137C8.77734 16.0195 8.41699 16.21 8.17676 16.5439C7.9248 16.8955 7.91016 17.3672 8.08887 17.7539C8.2793 18.1582 8.69238 18.4072 9.13184 18.4307C9.51563 18.4512 9.90234 18.4307 10.2861 18.4307C10.5146 18.4307 10.7373 18.2285 10.7256 17.9912C10.7168 17.7539 10.5352 17.5518 10.2891 17.5518ZM15.5537 17.5518C15.2461 17.5518 14.9385 17.5518 14.6309 17.5518C14.5752 17.5518 14.5166 17.5518 14.4609 17.5518C14.4463 17.5518 14.4346 17.5518 14.4199 17.5518C14.3936 17.5518 14.3145 17.5312 14.3965 17.5518C14.3584 17.543 14.3203 17.5342 14.2852 17.5195C14.3877 17.5605 14.168 17.4229 14.25 17.4961C14.2207 17.4697 14.1943 17.4434 14.168 17.4141C14.2236 17.4756 14.1709 17.4141 14.1592 17.3936C14.1475 17.376 14.1123 17.2969 14.1445 17.376C14.1328 17.3467 14.124 17.3145 14.1152 17.2822C14.0947 17.2148 14.1123 17.3818 14.1094 17.2617C14.1094 17.2354 14.1094 17.2061 14.1094 17.1797C14.1094 17.0742 14.0801 17.2354 14.1182 17.1387C14.1182 17.1416 14.1621 17.0215 14.1357 17.0801C14.1094 17.1387 14.168 17.0273 14.168 17.0303C14.2207 16.9307 14.1357 17.0596 14.1797 17.0127C14.2031 16.9893 14.2236 16.9688 14.2471 16.9453C14.1855 17.001 14.2471 16.9482 14.2676 16.9365C14.2852 16.9248 14.3643 16.8896 14.2852 16.9219C14.3232 16.9072 14.3584 16.8984 14.3965 16.8896C14.3057 16.9131 14.4229 16.8896 14.4463 16.8896C14.4609 16.8896 14.4785 16.8896 14.4932 16.8896C14.5635 16.8896 14.6338 16.8896 14.7041 16.8896C14.9033 16.8896 15.1025 16.8896 15.3047 16.8896C15.3691 16.8896 15.4365 16.8896 15.501 16.8896C15.5156 16.8896 15.5332 16.8896 15.5479 16.8896C15.5508 16.8896 15.5508 16.8896 15.5537 16.8896C15.5801 16.8896 15.6064 16.8896 15.6357 16.8926C15.5918 16.8867 15.5859 16.8867 15.6182 16.8926C15.6504 16.9014 15.6797 16.9102 15.7119 16.9219C15.627 16.8896 15.7266 16.9365 15.7441 16.9453C15.835 16.9922 15.709 16.8926 15.7764 16.9717C15.7852 16.9805 15.8584 17.0742 15.8057 16.998C15.8291 17.0303 15.8467 17.0625 15.8643 17.0977C15.8291 17.0303 15.8643 17.1094 15.876 17.1387C15.9141 17.2354 15.8848 17.0713 15.8848 17.1797C15.8848 17.2061 15.8848 17.2354 15.8848 17.2617C15.8848 17.3818 15.8994 17.2148 15.8789 17.2822C15.873 17.3057 15.8203 17.4229 15.8643 17.3408C15.8525 17.3643 15.8379 17.3848 15.8262 17.4082C15.7969 17.4492 15.7969 17.4492 15.8262 17.4111C15.8086 17.4316 15.791 17.4492 15.7734 17.4668C15.7617 17.4814 15.709 17.5166 15.7734 17.4697C15.7559 17.4814 15.6211 17.5488 15.709 17.5166C15.6855 17.5254 15.6592 17.5313 15.6357 17.54C15.5859 17.5488 15.5859 17.5518 15.6357 17.5459C15.6094 17.5518 15.5801 17.5518 15.5537 17.5518C15.3252 17.5576 15.1025 17.751 15.1143 17.9912C15.126 18.2256 15.3076 18.4365 15.5537 18.4307C15.9932 18.4189 16.418 18.1875 16.6201 17.7861C16.8135 17.4053 16.8076 16.9365 16.5732 16.5732C16.3447 16.2246 15.9668 16.0195 15.5508 16.0137C15.3721 16.0107 15.1934 16.0137 15.0117 16.0137C14.8242 16.0137 14.6396 16.0107 14.4521 16.0137C14.042 16.0195 13.6816 16.21 13.4414 16.5439C13.1895 16.8955 13.1748 17.3672 13.3535 17.7539C13.5439 18.1582 13.957 18.4072 14.3965 18.4307C14.7803 18.4512 15.167 18.4307 15.5508 18.4307C15.7793 18.4307 16.002 18.2285 15.9902 17.9912C15.9844 17.7539 15.7998 17.5518 15.5537 17.5518ZM20.8213 17.5518C20.5137 17.5518 20.2061 17.5518 19.8984 17.5518C19.8428 17.5518 19.7842 17.5518 19.7285 17.5518C19.7139 17.5518 19.7021 17.5518 19.6875 17.5518C19.6611 17.5518 19.582 17.5312 19.6641 17.5518C19.626 17.543 19.5879 17.5342 19.5527 17.5195C19.6553 17.5605 19.4355 17.4229 19.5176 17.4961C19.4883 17.4697 19.4619 17.4434 19.4355 17.4141C19.4912 17.4756 19.4385 17.4141 19.4268 17.3936C19.415 17.376 19.3799 17.2969 19.4121 17.376C19.4004 17.3467 19.3916 17.3145 19.3828 17.2822C19.3623 17.2148 19.3799 17.3818 19.377 17.2617C19.377 17.2354 19.377 17.2061 19.377 17.1797C19.377 17.0742 19.3477 17.2354 19.3857 17.1387C19.3857 17.1416 19.4297 17.0215 19.4033 17.0801C19.377 17.1387 19.4355 17.0273 19.4355 17.0303C19.4883 16.9307 19.4033 17.0596 19.4473 17.0127C19.4707 16.9893 19.4912 16.9688 19.5146 16.9453C19.4531 17.001 19.5146 16.9482 19.5352 16.9365C19.5527 16.9248 19.6318 16.8896 19.5527 16.9219C19.5908 16.9072 19.626 16.8984 19.6641 16.8896C19.5732 16.9131 19.6904 16.8896 19.7139 16.8896C19.7285 16.8896 19.7461 16.8896 19.7607 16.8896C19.8311 16.8896 19.9014 16.8896 19.9717 16.8896C20.1709 16.8896 20.3701 16.8896 20.5723 16.8896C20.6367 16.8896 20.7041 16.8896 20.7686 16.8896C20.7832 16.8896 20.8008 16.8896 20.8154 16.8896C20.8184 16.8896 20.8184 16.8896 20.8213 16.8896C20.8477 16.8896 20.874 16.8896 20.9033 16.8926C20.8594 16.8867 20.8535 16.8867 20.8857 16.8926C20.918 16.9014 20.9473 16.9102 20.9795 16.9219C20.8945 16.8896 20.9941 16.9365 21.0117 16.9453C21.1025 16.9922 20.9766 16.8926 21.0439 16.9717C21.0527 16.9805 21.126 17.0742 21.0732 16.998C21.0967 17.0303 21.1143 17.0625 21.1318 17.0977C21.0967 17.0303 21.1318 17.1094 21.1436 17.1387C21.1816 17.2354 21.1523 17.0713 21.1523 17.1797C21.1523 17.2061 21.1523 17.2354 21.1523 17.2617C21.1523 17.3818 21.167 17.2148 21.1465 17.2822C21.1406 17.3057 21.0879 17.4229 21.1318 17.3408C21.1201 17.3643 21.1055 17.3848 21.0938 17.4082C21.0645 17.4492 21.0645 17.4492 21.0938 17.4111C21.0762 17.4316 21.0586 17.4492 21.041 17.4668C21.0293 17.4814 20.9766 17.5166 21.041 17.4697C21.0234 17.4814 20.8887 17.5488 20.9766 17.5166C20.9531 17.5254 20.9268 17.5313 20.9033 17.54C20.8535 17.5488 20.8535 17.5518 20.9033 17.5459C20.874 17.5518 20.8477 17.5518 20.8213 17.5518C20.5928 17.5576 20.3701 17.751 20.3818 17.9912C20.3936 18.2256 20.5752 18.4365 20.8213 18.4307C21.2607 18.4189 21.6855 18.1875 21.8877 17.7861C22.0811 17.4053 22.0752 16.9365 21.8408 16.5732C21.6123 16.2246 21.2344 16.0195 20.8184 16.0137C20.6396 16.0107 20.4609 16.0137 20.2793 16.0137C20.0918 16.0137 19.9072 16.0107 19.7197 16.0137C19.3096 16.0195 18.9492 16.21 18.709 16.5439C18.457 16.8955 18.4424 17.3672 18.6211 17.7539C18.8115 18.1582 19.2246 18.4072 19.6641 18.4307C20.0479 18.4512 20.4346 18.4307 20.8184 18.4307C21.0469 18.4307 21.2695 18.2285 21.2578 17.9912C21.249 17.7539 21.0674 17.5518 20.8213 17.5518ZM10.2891 21.375C9.98145 21.375 9.67383 21.375 9.36621 21.375C9.31055 21.375 9.25195 21.375 9.19629 21.375C9.18164 21.375 9.16992 21.375 9.15527 21.375C9.12891 21.375 9.04981 21.3545 9.13184 21.375C9.09375 21.3662 9.05566 21.3574 9.02051 21.3428C9.12305 21.3838 8.90332 21.2461 8.98535 21.3193C8.95606 21.293 8.92969 21.2666 8.90332 21.2373C8.95898 21.2988 8.90625 21.2373 8.89453 21.2168C8.88281 21.1992 8.84766 21.1201 8.87988 21.1992C8.86816 21.1699 8.85938 21.1377 8.85059 21.1055C8.83008 21.0381 8.84766 21.2051 8.84473 21.085C8.84473 21.0586 8.84473 21.0293 8.84473 21.0029C8.84473 20.8975 8.81543 21.0586 8.85352 20.9619C8.85352 20.9648 8.89746 20.8447 8.87109 20.9033C8.84473 20.9619 8.90332 20.8506 8.90332 20.8535C8.95605 20.7539 8.87109 20.8828 8.91504 20.8359C8.93848 20.8125 8.95898 20.792 8.98242 20.7686C8.9209 20.8242 8.98242 20.7715 9.00293 20.7598C9.02051 20.748 9.09961 20.7129 9.02051 20.7451C9.05859 20.7305 9.09375 20.7217 9.13184 20.7129C9.04102 20.7363 9.1582 20.7129 9.18164 20.7129C9.19629 20.7129 9.21387 20.7129 9.22852 20.7129C9.29883 20.7129 9.36914 20.7129 9.43945 20.7129C9.63867 20.7129 9.83789 20.7129 10.04 20.7129C10.1045 20.7129 10.1719 20.7129 10.2363 20.7129C10.251 20.7129 10.2686 20.7129 10.2832 20.7129C10.2861 20.7129 10.2861 20.7129 10.2891 20.7129C10.3154 20.7129 10.3418 20.7129 10.3711 20.7158C10.3271 20.71 10.3213 20.71 10.3535 20.7158C10.3857 20.7246 10.415 20.7334 10.4473 20.7451C10.3623 20.7129 10.4619 20.7598 10.4795 20.7686C10.5703 20.8154 10.4443 20.7158 10.5117 20.7949C10.5205 20.8037 10.5937 20.8975 10.541 20.8213C10.5645 20.8535 10.582 20.8857 10.5996 20.9209C10.5645 20.8535 10.5996 20.9326 10.6113 20.9619C10.6494 21.0586 10.6201 20.8945 10.6201 21.0029C10.6201 21.0293 10.6201 21.0586 10.6201 21.085C10.6201 21.2051 10.6348 21.0381 10.6143 21.1055C10.6084 21.1289 10.5557 21.2461 10.5996 21.1641C10.5879 21.1875 10.5732 21.208 10.5615 21.2314C10.5322 21.2725 10.5322 21.2725 10.5615 21.2344C10.5439 21.2549 10.5264 21.2725 10.5088 21.29C10.4971 21.3047 10.4443 21.3398 10.5088 21.293C10.4912 21.3047 10.3564 21.3721 10.4443 21.3398C10.4209 21.3486 10.3945 21.3545 10.3711 21.3633C10.3213 21.3721 10.3213 21.375 10.3711 21.3691C10.3418 21.375 10.3154 21.375 10.2891 21.375C10.0605 21.3809 9.83789 21.5742 9.84961 21.8145C9.86133 22.0488 10.043 22.2598 10.2891 22.2539C10.7285 22.2422 11.1533 22.0107 11.3555 21.6094C11.5488 21.2285 11.543 20.7598 11.3086 20.3965C11.0801 20.0479 10.7021 19.8428 10.2861 19.8369C10.1074 19.834 9.92871 19.8369 9.74707 19.8369C9.55957 19.8369 9.375 19.834 9.1875 19.8369C8.77734 19.8428 8.41699 20.0332 8.17676 20.3672C7.9248 20.7188 7.91016 21.1904 8.08887 21.5772C8.2793 21.9814 8.69238 22.2305 9.13184 22.2539C9.51563 22.2744 9.90234 22.2539 10.2861 22.2539C10.5146 22.2539 10.7373 22.0518 10.7256 21.8145C10.7168 21.5771 10.5352 21.375 10.2891 21.375ZM15.5537 21.375C15.2461 21.375 14.9385 21.375 14.6309 21.375C14.5752 21.375 14.5166 21.375 14.4609 21.375C14.4463 21.375 14.4346 21.375 14.4199 21.375C14.3936 21.375 14.3145 21.3545 14.3965 21.375C14.3584 21.3662 14.3203 21.3574 14.2852 21.3428C14.3877 21.3838 14.168 21.2461 14.25 21.3193C14.2207 21.293 14.1943 21.2666 14.168 21.2373C14.2236 21.2988 14.1709 21.2373 14.1592 21.2168C14.1475 21.1992 14.1123 21.1201 14.1445 21.1992C14.1328 21.1699 14.124 21.1377 14.1152 21.1055C14.0947 21.0381 14.1123 21.2051 14.1094 21.085C14.1094 21.0586 14.1094 21.0293 14.1094 21.0029C14.1094 20.8975 14.0801 21.0586 14.1182 20.9619C14.1182 20.9648 14.1621 20.8447 14.1357 20.9033C14.1094 20.9619 14.168 20.8506 14.168 20.8535C14.2207 20.7539 14.1357 20.8828 14.1797 20.8359C14.2031 20.8125 14.2236 20.792 14.2471 20.7686C14.1855 20.8242 14.2471 20.7715 14.2676 20.7598C14.2852 20.748 14.3643 20.7129 14.2852 20.7451C14.3232 20.7305 14.3584 20.7217 14.3965 20.7129C14.3057 20.7363 14.4229 20.7129 14.4463 20.7129C14.4609 20.7129 14.4785 20.7129 14.4932 20.7129C14.5635 20.7129 14.6338 20.7129 14.7041 20.7129C14.9033 20.7129 15.1025 20.7129 15.3047 20.7129C15.3691 20.7129 15.4365 20.7129 15.501 20.7129C15.5156 20.7129 15.5332 20.7129 15.5479 20.7129C15.5508 20.7129 15.5508 20.7129 15.5537 20.7129C15.5801 20.7129 15.6064 20.7129 15.6357 20.7158C15.5918 20.71 15.5859 20.71 15.6182 20.7158C15.6504 20.7246 15.6797 20.7334 15.7119 20.7451C15.627 20.7129 15.7266 20.7598 15.7441 20.7686C15.835 20.8154 15.709 20.7158 15.7764 20.7949C15.7852 20.8037 15.8584 20.8975 15.8057 20.8213C15.8291 20.8535 15.8467 20.8857 15.8643 20.9209C15.8291 20.8535 15.8643 20.9326 15.876 20.9619C15.9141 21.0586 15.8848 20.8945 15.8848 21.0029C15.8848 21.0293 15.8848 21.0586 15.8848 21.085C15.8848 21.2051 15.8994 21.0381 15.8789 21.1055C15.873 21.1289 15.8203 21.2461 15.8643 21.1641C15.8525 21.1875 15.8379 21.208 15.8262 21.2314C15.7969 21.2725 15.7969 21.2725 15.8262 21.2344C15.8086 21.2549 15.791 21.2725 15.7734 21.29C15.7617 21.3047 15.709 21.3398 15.7734 21.293C15.7559 21.3047 15.6211 21.3721 15.709 21.3398C15.6855 21.3486 15.6592 21.3545 15.6357 21.3633C15.5859 21.3721 15.5859 21.375 15.6357 21.3691C15.6094 21.375 15.5801 21.375 15.5537 21.375C15.3252 21.3809 15.1025 21.5742 15.1143 21.8145C15.126 22.0488 15.3076 22.2598 15.5537 22.2539C15.9932 22.2422 16.418 22.0107 16.6201 21.6094C16.8135 21.2285 16.8076 20.7598 16.5732 20.3965C16.3447 20.0479 15.9668 19.8428 15.5508 19.8369C15.3721 19.834 15.1934 19.8369 15.0117 19.8369C14.8242 19.8369 14.6396 19.834 14.4521 19.8369C14.042 19.8428 13.6816 20.0332 13.4414 20.3672C13.1895 20.7188 13.1748 21.1904 13.3535 21.5772C13.5439 21.9814 13.957 22.2305 14.3965 22.2539C14.7803 22.2744 15.167 22.2539 15.5508 22.2539C15.7793 22.2539 16.002 22.0518 15.9902 21.8145C15.9844 21.5771 15.7998 21.375 15.5537 21.375ZM20.8213 21.375C20.5137 21.375 20.2061 21.375 19.8984 21.375C19.8428 21.375 19.7842 21.375 19.7285 21.375C19.7139 21.375 19.7021 21.375 19.6875 21.375C19.6611 21.375 19.582 21.3545 19.6641 21.375C19.626 21.3662 19.5879 21.3574 19.5527 21.3428C19.6553 21.3838 19.4355 21.2461 19.5176 21.3193C19.4883 21.293 19.4619 21.2666 19.4355 21.2373C19.4912 21.2988 19.4385 21.2373 19.4268 21.2168C19.415 21.1992 19.3799 21.1201 19.4121 21.1992C19.4004 21.1699 19.3916 21.1377 19.3828 21.1055C19.3623 21.0381 19.3799 21.2051 19.377 21.085C19.377 21.0586 19.377 21.0293 19.377 21.0029C19.377 20.8975 19.3477 21.0586 19.3857 20.9619C19.3857 20.9648 19.4297 20.8447 19.4033 20.9033C19.377 20.9619 19.4355 20.8506 19.4355 20.8535C19.4883 20.7539 19.4033 20.8828 19.4473 20.8359C19.4707 20.8125 19.4912 20.792 19.5146 20.7686C19.4531 20.8242 19.5146 20.7715 19.5352 20.7598C19.5527 20.748 19.6318 20.7129 19.5527 20.7451C19.5908 20.7305 19.626 20.7217 19.6641 20.7129C19.5732 20.7363 19.6904 20.7129 19.7139 20.7129C19.7285 20.7129 19.7461 20.7129 19.7607 20.7129C19.8311 20.7129 19.9014 20.7129 19.9717 20.7129C20.1709 20.7129 20.3701 20.7129 20.5723 20.7129C20.6367 20.7129 20.7041 20.7129 20.7686 20.7129C20.7832 20.7129 20.8008 20.7129 20.8154 20.7129C20.8184 20.7129 20.8184 20.7129 20.8213 20.7129C20.8477 20.7129 20.874 20.7129 20.9033 20.7158C20.8594 20.71 20.8535 20.71 20.8857 20.7158C20.918 20.7246 20.9473 20.7334 20.9795 20.7451C20.8945 20.7129 20.9941 20.7598 21.0117 20.7686C21.1025 20.8154 20.9766 20.7158 21.0439 20.7949C21.0527 20.8037 21.126 20.8975 21.0732 20.8213C21.0967 20.8535 21.1143 20.8857 21.1318 20.9209C21.0967 20.8535 21.1318 20.9326 21.1436 20.9619C21.1816 21.0586 21.1523 20.8945 21.1523 21.0029C21.1523 21.0293 21.1523 21.0586 21.1523 21.085C21.1523 21.2051 21.167 21.0381 21.1465 21.1055C21.1406 21.1289 21.0879 21.2461 21.1318 21.1641C21.1201 21.1875 21.1055 21.208 21.0938 21.2314C21.0645 21.2725 21.0645 21.2725 21.0938 21.2344C21.0762 21.2549 21.0586 21.2725 21.041 21.29C21.0293 21.3047 20.9766 21.3398 21.041 21.293C21.0234 21.3047 20.8887 21.3721 20.9766 21.3398C20.9531 21.3486 20.9268 21.3545 20.9033 21.3633C20.8535 21.3721 20.8535 21.375 20.9033 21.3691C20.874 21.375 20.8477 21.375 20.8213 21.375C20.5928 21.3809 20.3701 21.5742 20.3818 21.8145C20.3936 22.0488 20.5752 22.2598 20.8213 22.2539C21.2607 22.2422 21.6855 22.0107 21.8877 21.6094C22.0811 21.2285 22.0752 20.7598 21.8408 20.3965C21.6123 20.0479 21.2344 19.8428 20.8184 19.8369C20.6396 19.834 20.4609 19.8369 20.2793 19.8369C20.0918 19.8369 19.9072 19.834 19.7197 19.8369C19.3096 19.8428 18.9492 20.0332 18.709 20.3672C18.457 20.7188 18.4424 21.1904 18.6211 21.5772C18.8115 21.9814 19.2246 22.2305 19.6641 22.2539C20.0479 22.2744 20.4346 22.2539 20.8184 22.2539C21.0469 22.2539 21.2695 22.0518 21.2578 21.8145C21.249 21.5771 21.0674 21.375 20.8213 21.375ZM10.2891 25.1982C9.98145 25.1982 9.67383 25.1982 9.36621 25.1982C9.31055 25.1982 9.25195 25.1982 9.19629 25.1982C9.18164 25.1982 9.16992 25.1982 9.15527 25.1982C9.12891 25.1982 9.04981 25.1777 9.13184 25.1982C9.09375 25.1895 9.05566 25.1807 9.02051 25.166C9.12305 25.207 8.90332 25.0693 8.98535 25.1426C8.95606 25.1162 8.92969 25.0898 8.90332 25.0605C8.95898 25.1221 8.90625 25.0605 8.89453 25.04C8.88281 25.0225 8.84766 24.9434 8.87988 25.0225C8.86816 24.9932 8.85938 24.9609 8.85059 24.9287C8.83008 24.8613 8.84766 25.0283 8.84473 24.9082C8.84473 24.8818 8.84473 24.8525 8.84473 24.8262C8.84473 24.7207 8.81543 24.8818 8.85352 24.7852C8.85352 24.7881 8.89746 24.668 8.87109 24.7266C8.84473 24.7852 8.90332 24.6738 8.90332 24.6768C8.95605 24.5772 8.87109 24.7061 8.91504 24.6592C8.93848 24.6357 8.95898 24.6152 8.98242 24.5918C8.9209 24.6475 8.98242 24.5947 9.00293 24.583C9.02051 24.5713 9.09961 24.5361 9.02051 24.5684C9.05859 24.5537 9.09375 24.5449 9.13184 24.5361C9.04102 24.5596 9.1582 24.5361 9.18164 24.5361C9.19629 24.5361 9.21387 24.5361 9.22852 24.5361C9.29883 24.5361 9.36914 24.5361 9.43945 24.5361C9.63867 24.5361 9.83789 24.5361 10.04 24.5361C10.1045 24.5361 10.1719 24.5361 10.2363 24.5361C10.251 24.5361 10.2686 24.5361 10.2832 24.5361C10.2861 24.5361 10.2861 24.5361 10.2891 24.5361C10.3154 24.5361 10.3418 24.5361 10.3711 24.5391C10.3271 24.5332 10.3213 24.5332 10.3535 24.5391C10.3857 24.5479 10.415 24.5566 10.4473 24.5684C10.3623 24.5361 10.4619 24.583 10.4795 24.5918C10.5703 24.6387 10.4443 24.5391 10.5117 24.6182C10.5205 24.627 10.5937 24.7207 10.541 24.6445C10.5645 24.6768 10.582 24.709 10.5996 24.7441C10.5645 24.6768 10.5996 24.7559 10.6113 24.7852C10.6494 24.8818 10.6201 24.7178 10.6201 24.8262C10.6201 24.8525 10.6201 24.8818 10.6201 24.9082C10.6201 25.0283 10.6348 24.8613 10.6143 24.9287C10.6084 24.9522 10.5557 25.0693 10.5996 24.9873C10.5879 25.0107 10.5732 25.0313 10.5615 25.0547C10.5322 25.0957 10.5322 25.0957 10.5615 25.0576C10.5439 25.0781 10.5264 25.0957 10.5088 25.1133C10.4971 25.1279 10.4443 25.1631 10.5088 25.1162C10.4912 25.1279 10.3564 25.1953 10.4443 25.1631C10.4209 25.1719 10.3945 25.1777 10.3711 25.1865C10.3213 25.1953 10.3213 25.1982 10.3711 25.1924C10.3418 25.1982 10.3154 25.1982 10.2891 25.1982C10.0605 25.2041 9.83789 25.3975 9.84961 25.6377C9.86133 25.8721 10.043 26.083 10.2891 26.0771C10.7285 26.0654 11.1533 25.834 11.3555 25.4326C11.5488 25.0518 11.543 24.583 11.3086 24.2197C11.0801 23.8711 10.7021 23.666 10.2861 23.6602C10.1074 23.6572 9.92871 23.6602 9.74707 23.6602C9.55957 23.6602 9.375 23.6572 9.1875 23.6602C8.77734 23.666 8.41699 23.8564 8.17676 24.1904C7.9248 24.542 7.91016 25.0137 8.08887 25.4004C8.2793 25.8047 8.69238 26.0537 9.13184 26.0771C9.51563 26.0977 9.90234 26.0771 10.2861 26.0771C10.5146 26.0771 10.7373 25.875 10.7256 25.6377C10.7168 25.4004 10.5352 25.1982 10.2891 25.1982ZM15.5537 25.1982C15.2461 25.1982 14.9385 25.1982 14.6309 25.1982C14.5752 25.1982 14.5166 25.1982 14.4609 25.1982C14.4463 25.1982 14.4346 25.1982 14.4199 25.1982C14.3936 25.1982 14.3145 25.1777 14.3965 25.1982C14.3584 25.1895 14.3203 25.1807 14.2852 25.166C14.3877 25.207 14.168 25.0693 14.25 25.1426C14.2207 25.1162 14.1943 25.0898 14.168 25.0605C14.2236 25.1221 14.1709 25.0605 14.1592 25.04C14.1475 25.0225 14.1123 24.9434 14.1445 25.0225C14.1328 24.9932 14.124 24.9609 14.1152 24.9287C14.0947 24.8613 14.1123 25.0283 14.1094 24.9082C14.1094 24.8818 14.1094 24.8525 14.1094 24.8262C14.1094 24.7207 14.0801 24.8818 14.1182 24.7852C14.1182 24.7881 14.1621 24.668 14.1357 24.7266C14.1094 24.7852 14.168 24.6738 14.168 24.6768C14.2207 24.5772 14.1357 24.7061 14.1797 24.6592C14.2031 24.6357 14.2236 24.6152 14.2471 24.5918C14.1855 24.6475 14.2471 24.5947 14.2676 24.583C14.2852 24.5713 14.3643 24.5361 14.2852 24.5684C14.3232 24.5537 14.3584 24.5449 14.3965 24.5361C14.3057 24.5596 14.4229 24.5361 14.4463 24.5361C14.4609 24.5361 14.4785 24.5361 14.4932 24.5361C14.5635 24.5361 14.6338 24.5361 14.7041 24.5361C14.9033 24.5361 15.1025 24.5361 15.3047 24.5361C15.3691 24.5361 15.4365 24.5361 15.501 24.5361C15.5156 24.5361 15.5332 24.5361 15.5479 24.5361C15.5508 24.5361 15.5508 24.5361 15.5537 24.5361C15.5801 24.5361 15.6064 24.5361 15.6357 24.5391C15.5918 24.5332 15.5859 24.5332 15.6182 24.5391C15.6504 24.5479 15.6797 24.5566 15.7119 24.5684C15.627 24.5361 15.7266 24.583 15.7441 24.5918C15.835 24.6387 15.709 24.5391 15.7764 24.6182C15.7852 24.627 15.8584 24.7207 15.8057 24.6445C15.8291 24.6768 15.8467 24.709 15.8643 24.7441C15.8291 24.6768 15.8643 24.7559 15.876 24.7852C15.9141 24.8818 15.8848 24.7178 15.8848 24.8262C15.8848 24.8525 15.8848 24.8818 15.8848 24.9082C15.8848 25.0283 15.8994 24.8613 15.8789 24.9287C15.873 24.9522 15.8203 25.0693 15.8643 24.9873C15.8525 25.0107 15.8379 25.0313 15.8262 25.0547C15.7969 25.0957 15.7969 25.0957 15.8262 25.0576C15.8086 25.0781 15.791 25.0957 15.7734 25.1133C15.7617 25.1279 15.709 25.1631 15.7734 25.1162C15.7559 25.1279 15.6211 25.1953 15.709 25.1631C15.6855 25.1719 15.6592 25.1777 15.6357 25.1865C15.5859 25.1953 15.5859 25.1982 15.6357 25.1924C15.6094 25.1982 15.5801 25.1982 15.5537 25.1982C15.3252 25.2041 15.1025 25.3975 15.1143 25.6377C15.126 25.8721 15.3076 26.083 15.5537 26.0771C15.9932 26.0654 16.418 25.834 16.6201 25.4326C16.8135 25.0518 16.8076 24.583 16.5732 24.2197C16.3447 23.8711 15.9668 23.666 15.5508 23.6602C15.3721 23.6572 15.1934 23.6602 15.0117 23.6602C14.8242 23.6602 14.6396 23.6572 14.4521 23.6602C14.042 23.666 13.6816 23.8564 13.4414 24.1904C13.1895 24.542 13.1748 25.0137 13.3535 25.4004C13.5439 25.8047 13.957 26.0537 14.3965 26.0771C14.7803 26.0977 15.167 26.0771 15.5508 26.0771C15.7793 26.0771 16.002 25.875 15.9902 25.6377C15.9844 25.4004 15.7998 25.1982 15.5537 25.1982ZM20.8213 25.1982C20.5137 25.1982 20.2061 25.1982 19.8984 25.1982C19.8428 25.1982 19.7842 25.1982 19.7285 25.1982C19.7139 25.1982 19.7021 25.1982 19.6875 25.1982C19.6611 25.1982 19.582 25.1777 19.6641 25.1982C19.626 25.1895 19.5879 25.1807 19.5527 25.166C19.6553 25.207 19.4355 25.0693 19.5176 25.1426C19.4883 25.1162 19.4619 25.0898 19.4355 25.0605C19.4912 25.1221 19.4385 25.0605 19.4268 25.04C19.415 25.0225 19.3799 24.9434 19.4121 25.0225C19.4004 24.9932 19.3916 24.9609 19.3828 24.9287C19.3623 24.8613 19.3799 25.0283 19.377 24.9082C19.377 24.8818 19.377 24.8525 19.377 24.8262C19.377 24.7207 19.3477 24.8818 19.3857 24.7852C19.3857 24.7881 19.4297 24.668 19.4033 24.7266C19.377 24.7852 19.4355 24.6738 19.4355 24.6768C19.4883 24.5772 19.4033 24.7061 19.4473 24.6592C19.4707 24.6357 19.4912 24.6152 19.5146 24.5918C19.4531 24.6475 19.5146 24.5947 19.5352 24.583C19.5527 24.5713 19.6318 24.5361 19.5527 24.5684C19.5908 24.5537 19.626 24.5449 19.6641 24.5361C19.5732 24.5596 19.6904 24.5361 19.7139 24.5361C19.7285 24.5361 19.7461 24.5361 19.7607 24.5361C19.8311 24.5361 19.9014 24.5361 19.9717 24.5361C20.1709 24.5361 20.3701 24.5361 20.5723 24.5361C20.6367 24.5361 20.7041 24.5361 20.7686 24.5361C20.7832 24.5361 20.8008 24.5361 20.8154 24.5361C20.8184 24.5361 20.8184 24.5361 20.8213 24.5361C20.8477 24.5361 20.874 24.5361 20.9033 24.5391C20.8594 24.5332 20.8535 24.5332 20.8857 24.5391C20.918 24.5479 20.9473 24.5566 20.9795 24.5684C20.8945 24.5361 20.9941 24.583 21.0117 24.5918C21.1025 24.6387 20.9766 24.5391 21.0439 24.6182C21.0527 24.627 21.126 24.7207 21.0732 24.6445C21.0967 24.6768 21.1143 24.709 21.1318 24.7441C21.0967 24.6768 21.1318 24.7559 21.1436 24.7852C21.1816 24.8818 21.1523 24.7178 21.1523 24.8262C21.1523 24.8525 21.1523 24.8818 21.1523 24.9082C21.1523 25.0283 21.167 24.8613 21.1465 24.9287C21.1406 24.9522 21.0879 25.0693 21.1318 24.9873C21.1201 25.0107 21.1055 25.0313 21.0938 25.0547C21.0645 25.0957 21.0645 25.0957 21.0938 25.0576C21.0762 25.0781 21.0586 25.0957 21.041 25.1133C21.0293 25.1279 20.9766 25.1631 21.041 25.1162C21.0234 25.1279 20.8887 25.1953 20.9766 25.1631C20.9531 25.1719 20.9268 25.1777 20.9033 25.1865C20.8535 25.1953 20.8535 25.1982 20.9033 25.1924C20.874 25.1982 20.8477 25.1982 20.8213 25.1982C20.5928 25.2041 20.3701 25.3975 20.3818 25.6377C20.3936 25.8721 20.5752 26.083 20.8213 26.0771C21.2607 26.0654 21.6855 25.834 21.8877 25.4326C22.0811 25.0518 22.0752 24.583 21.8408 24.2197C21.6123 23.8711 21.2344 23.666 20.8184 23.6602C20.6396 23.6572 20.4609 23.6602 20.2793 23.6602C20.0918 23.6602 19.9072 23.6572 19.7197 23.6602C19.3096 23.666 18.9492 23.8564 18.709 24.1904C18.457 24.542 18.4424 25.0137 18.6211 25.4004C18.8115 25.8047 19.2246 26.0537 19.6641 26.0771C20.0479 26.0977 20.4346 26.0771 20.8184 26.0771C21.0469 26.0771 21.2695 25.875 21.2578 25.6377C21.249 25.4004 21.0674 25.1982 20.8213 25.1982Z" fill="#6D7085"/>
</svg>
