<svg width="110" height="100" viewBox="0 0 110 100" fill="none" xmlns="http://www.w3.org/2000/svg">
<path d="M109.452 54.5608V78.6517C109.452 83.4436 106.859 87.433 102.996 90.7064C98.2951 94.6913 91.6582 97.6018 85.7876 99.5467C84.8673 99.8504 83.9425 100 82.995 100C82.043 99.9955 81.1136 99.8368 80.1843 99.524C74.3634 97.5565 67.7988 94.4874 63.1252 90.5297C59.6299 87.5693 57.1502 84.0876 56.6469 80.1345L46.9137 82.9453C46.6553 83.045 46.3697 83.0994 46.075 83.0994C45.7803 83.0994 45.4947 83.045 45.2363 82.9453C30.8976 78.8062 16.5623 74.6627 2.22361 70.5192C1.21265 70.2245 0.555302 69.3042 0.555302 68.2977L0.546234 14.7936C0.546234 13.6647 1.35318 12.7217 2.42762 12.5133L45.4322 0.0918347C45.8674 -0.0351073 46.3117 -0.0260318 46.7197 0.0918347C61.0549 4.23086 75.389 8.3744 89.7243 12.5133C90.7942 12.7173 91.6056 13.6603 91.6056 14.7936V41.6582C92.7617 42.3201 93.9449 42.9049 95.1463 43.4262C97.5626 44.4689 100.151 45.2986 102.898 46.0284C104.848 46.5543 106.484 47.6741 107.631 49.1655C108.792 50.6752 109.454 52.5475 109.454 54.5603L109.452 54.5608ZM22.1434 53.9898C22.1434 52.7068 23.1815 51.6687 24.4645 51.6687C25.7474 51.6687 26.7856 52.7068 26.7856 53.9898V54.1031C26.7856 55.3861 25.7474 56.4243 24.4645 56.4243C23.1815 56.4243 22.1434 55.3861 22.1434 54.1031V53.9898ZM22.1479 60.2687C22.1479 58.9857 23.1861 57.9476 24.469 57.9476C25.752 57.9476 26.7901 58.9857 26.7901 60.2687V72.8039L43.754 77.7046V29.011L26.7901 24.1103V41.3829C26.7901 42.6659 25.752 43.704 24.469 43.704C23.186 43.704 22.1479 42.6658 22.1479 41.3829V22.7686L5.18864 17.868V66.5616L22.1479 71.4623V60.2687ZM24.469 18.6289L59.3404 8.55561L46.0705 4.72484L11.1945 14.7982L24.4644 18.6335L24.469 18.6289ZM67.6767 10.9628L32.8007 21.0362L46.0705 24.8715L80.9465 14.7982L67.672 10.9628H67.6767ZM56.5562 75.3507V54.5419C56.5562 52.5381 57.2135 50.6749 58.356 49.1743C59.4939 47.6827 61.1214 46.563 63.0617 46.0327C65.7909 45.2846 68.4021 44.4233 70.8864 43.3398C73.3118 42.2835 75.6057 41.0142 77.7546 39.432C79.3323 38.2714 81.1728 37.6957 83.018 37.7002C84.3735 37.7047 85.7244 38.0266 86.9621 38.6567V17.8711L48.3966 29.0098V77.7034L56.5568 75.3461L56.5562 75.3507ZM85.4982 43.1951C84.7321 42.6239 83.8571 42.3337 83.0004 42.3292C82.139 42.3247 81.2595 42.6057 80.4933 43.1724C78.0588 44.9632 75.4658 46.4002 72.7366 47.588C70.0619 48.7531 67.2375 49.687 64.2772 50.4985C63.3523 50.7523 62.5772 51.2873 62.0376 51.99C61.5072 52.6882 61.1989 53.5767 61.1989 54.5468V78.6598C61.1989 81.6836 63.18 84.5125 66.1177 87.0013C70.2931 90.5374 76.3043 93.33 81.6716 95.1434C82.1385 95.302 82.5828 95.3836 83.0044 95.3836C83.4169 95.3836 83.8657 95.302 84.3417 95.1479C89.7637 93.3526 95.8431 90.7052 100.009 87.1736C102.883 84.7391 104.815 81.8921 104.815 78.6553V54.5644C104.815 53.5852 104.502 52.692 103.962 51.9893C103.418 51.2866 102.643 50.7562 101.714 50.5115C98.8033 49.7363 96.0198 48.8432 93.3178 47.6735C90.5298 46.4676 87.9276 45.0079 85.4976 43.19L85.4982 43.1951Z" fill="#4E846C"/>
<path d="M72.0758 66.9008C71.0603 67.676 70.8654 69.1313 71.6406 70.1468L78.1144 77.7903C78.8896 78.8058 80.3448 79.0007 81.3603 78.2255C81.7003 77.9671 81.9497 77.6316 82.0993 77.2599L95.5378 60.1732C95.5378 59.2856 95.5378 58.7053 94.9575 58.125C93.7969 57.5423 93.2167 57.5426 92.0561 58.1288L79.8702 72.94L75.3218 67.336C74.5465 66.3205 73.0913 66.1256 72.0758 66.9008Z" fill="#4E846C"/>
</svg>
