<svg width="26" height="27" viewBox="0 0 26 27" fill="none" xmlns="http://www.w3.org/2000/svg">
<path d="M15.1668 2.83003H6.50016C5.92553 2.83003 5.37443 3.0583 4.9681 3.46463C4.56177 3.87096 4.3335 4.42206 4.3335 4.99669V22.33C4.3335 22.9047 4.56177 23.4558 4.9681 23.8621C5.37443 24.2684 5.92553 24.4967 6.50016 24.4967H19.5002C20.0748 24.4967 20.6259 24.2684 21.0322 23.8621C21.4386 23.4558 21.6668 22.9047 21.6668 22.33V9.33003L15.1668 2.83003Z" stroke="#1976D2" stroke-width="2" stroke-linecap="round" stroke-linejoin="round"/>
<path d="M15.1665 2.83003V9.33003H21.6665" stroke="#1976D2" stroke-width="2" stroke-linecap="round" stroke-linejoin="round"/>
<path d="M17.3332 14.7467H8.6665" stroke="#1976D2" stroke-width="2" stroke-linecap="round" stroke-linejoin="round"/>
<path d="M17.3332 19.08H8.6665" stroke="#1976D2" stroke-width="2" stroke-linecap="round" stroke-linejoin="round"/>
<path d="M10.8332 10.4134H9.74984H8.6665" stroke="#1976D2" stroke-width="2" stroke-linecap="round" stroke-linejoin="round"/>
</svg>
