<svg width="27" height="26" viewBox="0 0 27 26" fill="none" xmlns="http://www.w3.org/2000/svg">
<path fill-rule="evenodd" clip-rule="evenodd" d="M13.5007 0C13.3685 5.52087e-05 13.2384 0.0313951 13.1222 0.0911782L1.116 6.30512C0.990001 6.36955 0.884706 6.46507 0.811255 6.58157C0.737803 6.69807 0.698924 6.83123 0.69873 6.96697V24.8499C0.699572 25.0496 0.784044 25.2408 0.933565 25.3815C1.08309 25.5222 1.28541 25.6007 1.49605 25.6H25.5038C25.7144 25.6007 25.9168 25.5221 26.0663 25.3815C26.2158 25.2408 26.3003 25.0496 26.3011 24.8499V6.96697C26.3011 6.83138 26.2624 6.69832 26.1892 6.58183C26.1161 6.46534 26.0111 6.36974 25.8854 6.30512L13.8792 0.0911867C13.763 0.0314023 13.6329 5.37879e-05 13.5007 0ZM13.504 1.60901L24.7129 7.41703V24.0939H23.0655V11.4307C23.0647 11.231 22.9802 11.0398 22.8307 10.8991C22.6812 10.7585 22.4788 10.6799 22.2682 10.6806H4.73357C4.52294 10.6799 4.32061 10.7585 4.17109 10.8991C4.02157 11.0398 3.9371 11.231 3.93626 11.4307V24.0939H2.28878V7.41703L13.504 1.60901ZM13.504 3.8372C11.8949 3.8372 10.5722 5.0913 10.5722 6.61693C10.5722 8.14256 11.8949 9.39666 13.504 9.39666C15.1131 9.39666 16.4295 8.14256 16.4295 6.61693C16.4295 5.0913 15.1131 3.8372 13.504 3.8372ZM13.504 5.34473C14.2546 5.34473 14.8396 5.90524 14.8396 6.61693C14.8396 7.32863 14.2546 7.89061 13.504 7.89061C12.7534 7.89061 12.1607 7.32863 12.1607 6.61693C12.1607 5.90524 12.7534 5.34473 13.504 5.34473ZM5.52468 12.1867H21.4771V24.0939H19.7303V19.6964C19.7307 19.5974 19.7105 19.4993 19.6709 19.4076C19.6313 19.316 19.573 19.2328 19.4993 19.1625C19.4257 19.0923 19.3382 19.0366 19.2418 18.9984C19.1455 18.9603 19.0421 18.9406 18.9377 18.9404H17.0158V14.5443C17.0162 14.4449 16.9958 14.3465 16.9559 14.2546C16.916 14.1627 16.8572 14.0792 16.7831 14.0089C16.709 13.9386 16.621 13.883 16.524 13.8451C16.4271 13.8073 16.3233 13.788 16.2185 13.7883H10.7831C10.5725 13.7891 10.3708 13.8692 10.2224 14.011C10.0741 14.1528 9.99117 14.3446 9.99198 14.5443V18.9404H8.0623C7.85167 18.9412 7.64999 19.0213 7.50164 19.1631C7.35328 19.3048 7.27038 19.4967 7.27119 19.6964V24.0939H5.52455L5.52468 12.1867ZM11.5743 15.2944H12.7067V16.2004C12.7063 16.2998 12.7266 16.3982 12.7665 16.4901C12.8065 16.582 12.8652 16.6655 12.9393 16.7358C13.0134 16.8061 13.1015 16.8617 13.1984 16.8996C13.2953 16.9375 13.3992 16.9567 13.504 16.9564C13.6083 16.956 13.7115 16.9361 13.8077 16.8979C13.9039 16.8597 13.9912 16.8039 14.0647 16.7337C14.1381 16.6635 14.1963 16.5803 14.2358 16.4888C14.2754 16.3973 14.2955 16.2993 14.2951 16.2004V15.2944H15.4259V18.9404H13.504H11.5743V15.2944ZM8.85973 20.4479H9.9921V21.3539C9.99169 21.4528 10.0118 21.5508 10.0514 21.6423C10.0909 21.7338 10.1491 21.8171 10.2225 21.8873C10.296 21.9574 10.3833 22.0132 10.4795 22.0514C10.5757 22.0896 10.6789 22.1095 10.7832 22.1099C10.8875 22.1095 10.9907 22.0896 11.0869 22.0514C11.1831 22.0132 11.2704 21.9574 11.3439 21.8872C11.4174 21.817 11.4755 21.7338 11.515 21.6423C11.5546 21.5508 11.5747 21.4528 11.5743 21.3539V20.4479H12.7067V24.0939H8.85973V20.4479ZM14.2951 20.4479H15.4259V21.3539C15.4255 21.4529 15.4457 21.551 15.4853 21.6427C15.525 21.7343 15.5833 21.8176 15.6569 21.8878C15.7305 21.958 15.818 22.0137 15.9144 22.0519C16.0108 22.09 16.1141 22.1097 16.2186 22.1099C16.3234 22.1103 16.4273 22.091 16.5242 22.0531C16.6211 22.0153 16.7092 21.9596 16.7833 21.8893C16.8574 21.8191 16.9161 21.7356 16.956 21.6437C16.996 21.5518 17.0163 21.4533 17.0159 21.3539V20.4479H18.1405V24.0939H14.295L14.2951 20.4479Z" fill="#6D7085"/>
</svg>
