<svg width="35" height="34" viewBox="0 0 35 34" fill="none" xmlns="http://www.w3.org/2000/svg">
<g clip-path="url(#clip0_1076_3017)">
<path d="M14.2803 30.8146C15.454 30.8146 16.4054 29.8632 16.4054 28.6895C16.4054 27.5159 15.454 26.5645 14.2803 26.5645C13.1067 26.5645 12.1553 27.5159 12.1553 28.6895C12.1553 29.8632 13.1067 30.8146 14.2803 30.8146Z" fill="#1976D2"/>
<path d="M27.0303 30.8146C28.204 30.8146 29.1554 29.8632 29.1554 28.6895C29.1554 27.5159 28.204 26.5645 27.0303 26.5645C25.8567 26.5645 24.9053 27.5159 24.9053 28.6895C24.9053 29.8632 25.8567 30.8146 27.0303 30.8146Z" fill="#1976D2"/>
<path d="M1.88477 1.41699H7.5516L11.3484 20.3867C11.4779 21.039 11.8328 21.6249 12.3508 22.0419C12.8688 22.4588 13.5169 22.6804 14.1818 22.6676H27.9522C28.6171 22.6804 29.2652 22.4588 29.7832 22.0419C30.3012 21.6249 30.6561 21.039 30.7856 20.3867L33.0524 8.50053H8.96831" stroke="#1976D2" stroke-width="2.12506" stroke-linecap="round" stroke-linejoin="round"/>
</g>
<defs>
<clipPath id="clip0_1076_3017">
<rect width="34.001" height="34.001" fill="white" transform="translate(0.467285)"/>
</clipPath>
</defs>
</svg>
