<svg width="25" height="25" viewBox="0 0 25 25" fill="none" xmlns="http://www.w3.org/2000/svg">
<g clip-path="url(#clip0_950_1244)">
<path d="M10.25 22.4138C11.0784 22.4138 11.75 21.7422 11.75 20.9138C11.75 20.0853 11.0784 19.4138 10.25 19.4138C9.42157 19.4138 8.75 20.0853 8.75 20.9138C8.75 21.7422 9.42157 22.4138 10.25 22.4138Z" fill="#1976D2"/>
<path d="M19.25 22.4138C20.0784 22.4138 20.75 21.7422 20.75 20.9138C20.75 20.0853 20.0784 19.4138 19.25 19.4138C18.4216 19.4138 17.75 20.0853 17.75 20.9138C17.75 21.7422 18.4216 22.4138 19.25 22.4138Z" fill="#1976D2"/>
<path d="M1.5 1.66376H5.5L8.18 15.0538C8.27144 15.5142 8.52191 15.9277 8.88755 16.2221C9.25318 16.5164 9.7107 16.6728 10.18 16.6638H19.9C20.3693 16.6728 20.8268 16.5164 21.1925 16.2221C21.5581 15.9277 21.8086 15.5142 21.9 15.0538L23.5 6.66376H6.5" stroke="#1976D2" stroke-width="2" stroke-linecap="round" stroke-linejoin="round"/>
</g>
<defs>
<clipPath id="clip0_950_1244">
<rect width="24" height="24" fill="white" transform="translate(0.5 0.663757)"/>
</clipPath>
</defs>
</svg>
