<svg width="100" height="90" viewBox="0 0 100 90" fill="none" xmlns="http://www.w3.org/2000/svg">
<path d="M12.5012 89.9971H87.4988C94.3892 89.9971 100 84.391 100 77.4959V12.5012C100 5.61078 94.3939 0 87.4988 0H12.5012C5.61078 0 0 5.6061 0 12.5012V77.5007C0 84.3911 5.6061 90.0019 12.5012 90.0019V89.9971ZM87.4988 84.9957H12.5012C8.36697 84.9957 5.00144 81.6301 5.00144 77.4959V24.9976H94.9986V77.4959C94.9986 81.6301 91.633 84.9957 87.4988 84.9957ZM12.5012 5.00144H87.4988C91.633 5.00144 94.9986 8.36697 94.9986 12.5012V20.001H5.00144V12.5012C5.00144 8.36697 8.36697 5.00144 12.5012 5.00144Z" fill="#4E846C"/>
<path d="M12.5011 14.9996H47.5016C48.8796 14.9996 49.9999 13.8793 49.9999 12.5012C49.9999 11.1232 48.8797 10.0029 47.5016 10.0029H12.5011C11.1231 10.0029 10.0028 11.1232 10.0028 12.5012C10.0028 13.8793 11.1231 14.9996 12.5011 14.9996Z" fill="#4E846C"/>
<path d="M70.0011 12.501C70.0011 15.8336 64.9996 15.8336 64.9996 12.501C64.9996 9.1683 70.0011 9.1683 70.0011 12.501Z" fill="#4E846C"/>
<path d="M79.999 12.501C79.999 15.8336 74.9976 15.8336 74.9976 12.501C74.9976 9.1683 79.999 9.1683 79.999 12.501Z" fill="#4E846C"/>
<path d="M89.9971 12.501C89.9971 15.8336 85.0004 15.8336 85.0004 12.501C85.0004 9.1683 89.9971 9.1683 89.9971 12.501Z" fill="#4E846C"/>
<path d="M70.2541 64.9012L76.1508 61.3623C76.9898 60.8607 77.4538 59.9139 77.3461 58.9436C77.2383 57.9734 76.5773 57.1531 75.6492 56.8484L44.539 46.48C43.6437 46.1753 42.65 46.4144 41.9797 47.0847C41.3094 47.755 41.075 48.744 41.375 49.6439L51.7434 80.759C52.0528 81.6824 52.8731 82.3479 53.8387 82.4558C54.8277 82.5589 55.7559 82.0949 56.2573 81.2606L59.7962 75.3638L65.4538 81.0214C66.4429 82.0104 67.746 82.5073 69.0444 82.5073C70.3427 82.5073 71.6459 82.0105 72.6349 81.0214L75.9067 77.7496C77.8847 75.7716 77.8847 72.5513 75.9067 70.5732L70.2491 64.9156L70.2541 64.9012ZM68.9978 77.4768L61.0761 69.5551C60.6074 69.0817 59.9699 68.8239 59.309 68.8239C59.2058 68.8239 59.1074 68.8286 59.0043 68.8427C58.2402 68.9364 57.5606 69.377 57.1669 70.0379L54.7763 74.0222L47.7078 52.8068L68.9184 59.88L64.9341 62.2706C64.2732 62.6643 63.8326 63.344 63.7389 64.108C63.6451 64.8719 63.9076 65.636 64.4513 66.1798L72.373 74.2092L68.9934 77.481L68.9978 77.4768Z" fill="#4E846C"/>
<path d="M44.2725 40.5878C45.6505 40.5878 46.7708 39.4675 46.7708 38.0895V32.5022C46.7708 31.1242 45.6505 30.0039 44.2725 30.0039C42.8945 30.0039 41.7742 31.1242 41.7742 32.5022V38.0895C41.7742 39.4675 42.8944 40.5878 44.2725 40.5878Z" fill="#4E846C"/>
<path d="M34.1846 35.6422C33.205 34.6626 31.6254 34.6626 30.6504 35.6422C29.6707 36.6172 29.6707 38.2015 30.6504 39.1765L34.6019 43.1279C35.0894 43.6154 35.7315 43.8592 36.3691 43.8592C37.0112 43.8592 37.6487 43.6154 38.1362 43.1279C39.1159 42.153 39.1159 40.5687 38.1362 39.5937L34.1846 35.6422Z" fill="#4E846C"/>
<path d="M35.5909 49.2642C35.5909 47.8862 34.4706 46.7659 33.0925 46.7659H27.5053C26.1272 46.7659 25.007 47.8861 25.007 49.2642C25.007 50.6422 26.1272 51.7625 27.5053 51.7625H33.0925C34.4706 51.7625 35.5909 50.6422 35.5909 49.2642Z" fill="#4E846C"/>
<path d="M34.6019 55.3998L30.6504 59.3513C29.6707 60.3309 29.6707 61.9105 30.6504 62.8855C31.1379 63.373 31.78 63.6167 32.4176 63.6167C33.0597 63.6167 33.6972 63.373 34.1848 62.8855L38.1362 58.934C39.1159 57.9544 39.1159 56.3748 38.1362 55.3998C37.1566 54.4201 35.5768 54.4201 34.6019 55.3998Z" fill="#4E846C"/>
<path d="M52.1706 43.8599C52.8128 43.8599 53.4503 43.6162 53.9378 43.1287L57.8893 39.1772C58.8689 38.1975 58.8689 36.6179 57.8893 35.6429C56.9096 34.6633 55.33 34.6633 54.355 35.6429L50.4036 39.5944C49.4239 40.5741 49.4239 42.1537 50.4036 43.1287C50.8911 43.6162 51.5331 43.8599 52.1706 43.8599Z" fill="#4E846C"/>
</svg>
