<svg width="28" height="25" viewBox="0 0 28 25" fill="none" xmlns="http://www.w3.org/2000/svg">
<path fill-rule="evenodd" clip-rule="evenodd" d="M26.5 22.5913H1.5C0.9825 22.5913 0.5625 23.0057 0.5625 23.5163C0.5625 24.0269 0.9825 24.4413 1.5 24.4413H26.5C27.0175 24.4413 27.4375 24.0269 27.4375 23.5163C27.4375 23.0057 27.0175 22.5913 26.5 22.5913Z" fill="#6D7085"/>
<path fill-rule="evenodd" clip-rule="evenodd" d="M2.4375 9.9499V23.5166C2.4375 24.0272 2.8575 24.4416 3.375 24.4416H24.625C25.1425 24.4416 25.5625 24.0272 25.5625 23.5166V9.9499C25.5625 9.4393 25.1425 9.0249 24.625 9.0249C24.1075 9.0249 23.6875 9.4393 23.6875 9.9499V22.5916H4.3125V9.9499C4.3125 9.4393 3.8925 9.0249 3.375 9.0249C2.8575 9.0249 2.4375 9.4393 2.4375 9.9499Z" fill="#6D7085"/>
<path fill-rule="evenodd" clip-rule="evenodd" d="M20.5625 14.2663C20.5625 13.7557 20.1425 13.3413 19.625 13.3413H8.375C7.8575 13.3413 7.4375 13.7557 7.4375 14.2663V23.5163C7.4375 24.0269 7.8575 24.4413 8.375 24.4413H19.625C20.1425 24.4413 20.5625 24.0269 20.5625 23.5163V14.2663ZM18.6875 15.1913V22.5913H9.3125V15.1913H18.6875Z" fill="#6D7085"/>
<path fill-rule="evenodd" clip-rule="evenodd" d="M4.625 10.8746C6.86875 10.8746 8.6875 9.08014 8.6875 6.86631V5.01631C8.6875 4.50571 8.2675 4.09131 7.75 4.09131H1.5C0.9825 4.09131 0.5625 4.50571 0.5625 5.01631V6.86631C0.5625 9.08014 2.38125 10.8746 4.625 10.8746ZM4.625 9.02464C3.4175 9.02464 2.4375 8.05894 2.4375 6.86631V5.94131H6.8125V6.86631C6.8125 8.05894 5.8325 9.02464 4.625 9.02464Z" fill="#6D7085"/>
<path fill-rule="evenodd" clip-rule="evenodd" d="M10.875 10.8746C13.1188 10.8746 14.9375 9.08014 14.9375 6.86631V5.01631C14.9375 4.50571 14.5175 4.09131 14 4.09131H7.75C7.2325 4.09131 6.8125 4.50571 6.8125 5.01631V6.86631C6.8125 9.08014 8.63125 10.8746 10.875 10.8746ZM10.875 9.02464C9.6675 9.02464 8.6875 8.05894 8.6875 6.86631V5.94131H13.0625V6.86631C13.0625 8.05894 12.0825 9.02464 10.875 9.02464Z" fill="#6D7085"/>
<path fill-rule="evenodd" clip-rule="evenodd" d="M17.125 10.8746C19.3688 10.8746 21.1875 9.08014 21.1875 6.86631V5.01631C21.1875 4.50571 20.7675 4.09131 20.25 4.09131H14C13.4825 4.09131 13.0625 4.50571 13.0625 5.01631V6.86631C13.0625 9.08014 14.8813 10.8746 17.125 10.8746ZM17.125 9.02464C15.9175 9.02464 14.9375 8.05894 14.9375 6.86631V5.94131H19.3125V6.86631C19.3125 8.05894 18.3325 9.02464 17.125 9.02464Z" fill="#6D7085"/>
<path fill-rule="evenodd" clip-rule="evenodd" d="M23.375 10.8746C25.6188 10.8746 27.4375 9.08014 27.4375 6.86631V5.01631C27.4375 4.50571 27.0175 4.09131 26.5 4.09131H20.25C19.7325 4.09131 19.3125 4.50571 19.3125 5.01631V6.86631C19.3125 9.08014 21.1313 10.8746 23.375 10.8746ZM23.375 9.02464C22.1675 9.02464 21.1875 8.05894 21.1875 6.86631V5.94131H25.5625V6.86631C25.5625 8.05894 24.5825 9.02464 23.375 9.02464Z" fill="#6D7085"/>
<path fill-rule="evenodd" clip-rule="evenodd" d="M24.6072 0.435367C24.436 0.164033 24.136 0 23.8122 0H5.06221C4.73846 0 4.43846 0.164033 4.26721 0.435367L1.14221 5.3687C0.962208 5.6536 0.952208 6.0125 1.11721 6.30727C1.28221 6.6008 1.59596 6.78333 1.93721 6.78333H26.9372C27.2785 6.78333 27.5922 6.6008 27.7572 6.30727C27.9222 6.0125 27.9122 5.6536 27.7322 5.3687L24.6072 0.435367ZM23.2922 1.85L25.246 4.93333H3.62846L5.58221 1.85H23.2922Z" fill="#6D7085"/>
<path fill-rule="evenodd" clip-rule="evenodd" d="M13.0625 14.2663V23.5163C13.0625 24.0269 13.4825 24.4413 14 24.4413C14.5175 24.4413 14.9375 24.0269 14.9375 23.5163V14.2663C14.9375 13.7557 14.5175 13.3413 14 13.3413C13.4825 13.3413 13.0625 13.7557 13.0625 14.2663Z" fill="#6D7085"/>
</svg>
