<svg width="889" height="889" viewBox="0 0 889 889" fill="none" xmlns="http://www.w3.org/2000/svg">
<g opacity="0.5">
<path d="M446.251 887.248H442.457V885.207C441.873 783.058 362.487 768.168 270.844 750.658C209.846 738.983 140.967 726.142 88.7248 684.405C28.8938 636.542 0 558.325 0 445.083C0 444.208 0 443.332 0 442.457V440.706H2.04304C245.161 440.706 442.749 243.118 442.749 0H446.543C446.543 103.902 527.388 121.413 621.074 141.843C684.405 155.561 749.783 169.862 801.443 211.305C860.401 258.878 889 334.469 889 442.749C889 443.624 889 444.5 889 445.376V447.127H887.248C645.59 447.127 448.002 643.839 446.543 885.207L446.251 887.248ZM3.50233 444.792C3.50233 445.083 3.50233 445.083 3.50233 445.376C3.50233 557.449 32.1043 634.5 90.7676 681.488C142.135 722.638 210.721 735.48 271.136 747.155C317.25 755.913 360.736 764.086 392.841 783.347C420.859 799.982 437.204 823.333 443.332 855.725C450.921 748.907 496.451 649.384 573.209 572.918C656.681 490.03 767.293 443.916 884.917 443.624C884.917 443.332 884.917 443.332 884.917 443.041C884.917 203.425 744.238 173.072 619.906 145.929C572.918 135.714 528.555 126.083 496.159 105.653C467.848 88.1414 451.213 64.2088 445.083 32.1044C437.495 138.924 392.257 238.157 316.082 314.623C232.319 398.094 121.413 444.208 3.50233 444.792Z" fill="white" fill-opacity="0.3"/>
<path d="M446.251 859.228H442.457V857.187C441.873 761.748 367.741 747.155 282.226 730.231C225.606 719.135 161.689 706.294 113.241 667.481C57.4957 623.117 30.061 550.736 29.4773 446.542C29.4773 445.667 29.4773 444.791 29.4773 444.207V442.165H31.5204C258.294 442.165 442.748 257.71 442.748 30.9365H446.543C446.543 128.125 522.134 145.053 609.691 164.899C668.357 178.033 729.355 191.75 777.216 230.276C832.084 274.638 859.228 344.392 859.814 444.207C859.814 445.083 859.814 445.959 859.814 446.834V448.586H858.063C632.748 448.586 448.294 632.164 446.834 857.477L446.251 859.228ZM32.9796 445.959V446.251C33.5633 549.277 60.4143 620.782 115.283 664.267C163.149 702.501 223.855 714.466 282.81 726.142C326.005 734.604 366.573 742.776 396.343 760.872C422.318 776.637 437.495 798.23 443.332 828.001C450.629 728.479 493.24 635.959 564.453 565.037C642.379 487.695 745.403 444.791 855.145 444.207C855.145 443.916 855.145 443.916 855.145 443.624C853.683 223.271 723.224 193.793 607.94 168.11C564.161 158.186 522.717 148.847 492.073 129.584C466.097 112.949 450.337 90.7673 444.5 60.9979C437.203 160.23 395.176 252.749 323.962 323.67C246.62 402.472 143.01 445.667 32.9796 445.959Z" fill="#F1F1F1"/>
<path d="M446.251 831.215H442.457V829.167C441.873 740.155 373.286 726.142 293.61 709.508C241.367 698.708 182.412 686.453 137.465 650.552C85.8063 609.4 60.123 542.856 58.9556 447.71C58.9556 447.127 58.9556 446.251 58.9556 445.376V443.624H60.9984C271.428 443.624 442.749 272.304 442.749 61.874H446.543C446.543 152.35 516.589 168.694 598.017 187.665C652.303 200.215 708.342 213.348 752.7 249.247C803.485 290.107 828.877 354.316 830.339 445.668C830.339 446.543 830.339 447.127 830.339 448.002V449.754H828.587C619.323 449.754 448.003 619.907 446.835 829.167L446.251 831.215ZM62.4577 447.419C62.4577 447.71 62.4577 447.71 62.4577 447.419C65.3763 658.432 186.789 683.529 293.901 705.715C365.99 720.597 429.616 733.734 443.332 801.154C450.337 709.218 489.738 623.701 555.698 558.033C628.078 486.236 723.811 446.251 825.664 445.668V445.376C822.746 243.994 702.501 215.975 596.558 191.459C555.698 181.828 517.173 173.072 488.862 154.685C464.931 139.216 450.337 118.786 444.792 91.3517C429.907 289.815 264.132 446.543 62.4577 447.419Z" fill="#F3F3F3"/>
<path d="M446.251 803.195H442.457V801.153C441.873 718.845 378.54 704.838 304.992 689.073C257.127 678.86 203.133 666.895 161.689 633.915C114.117 595.974 90.1841 535.559 88.4331 449.169C88.4331 448.585 88.4331 447.71 88.4331 447.126V445.083H90.4758C284.562 445.083 442.749 287.188 442.749 92.8105H446.543C446.543 176.865 511.336 192.625 586.343 210.721C635.959 222.688 687.329 235.237 728.183 268.217C774.885 305.867 798.816 364.53 800.568 446.834C800.568 447.418 800.568 448.293 800.568 449.169V450.92H798.816C605.606 450.92 447.71 607.94 446.834 801.153L446.251 803.195ZM91.9351 448.878C96.0212 639.752 207.219 663.977 305.283 684.991C371.827 699.294 430.199 712.135 443.332 773.713C450.045 689.37 486.527 610.859 547.234 550.444C614.07 484.192 702.501 447.418 796.478 446.834C792.395 264.715 682.363 237.864 585.175 214.515C547.526 205.467 511.919 196.712 485.652 179.492C463.762 165.191 450.337 146.22 445.083 121.121C430.491 303.824 277.849 448.002 91.9351 448.878Z" fill="#F5F5F5"/>
<path d="M446.25 774.885H442.457V772.837C442.165 696.956 383.793 683.529 316.374 668.06C273.179 658.14 223.855 646.758 186.205 616.696C143.01 581.965 120.537 527.679 118.202 450.045C118.202 449.461 118.202 448.586 118.202 448.002V446.543H120.246C298.279 446.543 443.04 301.781 443.04 123.748H446.835C446.835 201.09 506.374 216.267 575.252 233.779C620.198 245.161 666.895 257.127 704.253 287.188C746.865 321.628 769.044 374.454 771.382 448.294C771.382 448.878 771.382 449.754 771.382 450.337V452.088H769.63C592.764 452.088 448.002 595.974 447.126 772.837L446.25 774.885ZM121.412 450.337C126.958 621.074 227.941 644.131 316.666 664.564C377.372 678.57 430.782 690.536 443.04 747.155C449.461 670.108 482.733 598.601 538.186 543.44C599.476 482.733 680.322 448.878 766.417 448.294C760.872 285.437 661.06 260.046 573.209 237.572C538.478 228.817 505.79 220.353 481.857 204.301C462.011 190.875 449.753 173.656 444.791 151.183C431.074 317.833 291.566 449.169 121.412 450.337Z" fill="#F7F7F7"/>
<path d="M446.252 746.865H442.457V744.824C442.166 675.357 389.048 662.515 327.466 647.633C288.648 638.001 244.285 627.495 210.139 600.06C171.029 568.831 150.307 520.091 147.097 451.504C147.097 450.92 147.097 450.337 147.097 449.753V447.71H149.14C310.829 447.71 442.457 316.082 442.457 154.393H446.252C446.252 225.022 500.537 239.615 562.995 256.543C643.256 278.14 734.314 302.657 741.321 449.461C741.321 450.045 741.321 450.628 741.321 451.213V452.964H739.279C578.463 452.964 447.127 583.716 446.252 744.527V746.865ZM150.891 451.796C157.896 602.395 248.372 624.284 328.049 643.838C382.918 657.264 431.367 668.936 443.333 720.011C449.462 650.551 479.523 586.051 529.723 536.143C585.176 480.982 659.019 450.337 737.231 449.753C730.231 306.159 640.921 281.934 561.828 260.92C508.126 246.619 457.05 232.902 444.792 180.952C431.95 331.551 305.284 450.628 150.891 451.796Z" fill="#F9F9F9"/>
<path d="M446.251 718.845H442.457V716.804C442.165 653.762 394.301 641.212 338.847 626.911C302.657 617.279 265.007 607.649 234.654 583.132C199.631 555.114 180.66 512.502 176.866 452.963C176.866 452.38 176.866 451.796 176.866 451.212V449.169H178.909C324.255 449.169 442.457 330.967 442.457 185.621H446.251C446.251 249.83 494.991 263.839 551.612 279.891C622.826 300.322 703.377 323.379 711.839 450.92C711.839 451.504 711.839 452.088 711.839 452.671V454.422H710.094C565.621 454.422 447.419 572.042 446.543 716.514L446.251 718.845ZM180.66 453.256C189.124 583.716 269.093 604.73 339.722 623.116C389.047 635.958 432.533 647.341 443.624 693.163C449.461 630.997 476.604 573.501 521.258 528.846C571.166 479.231 637.418 451.504 708.046 450.92C699.584 326.589 620.49 303.824 550.736 283.686C502.58 269.968 456.758 256.835 445.375 210.138C432.533 345.559 319.001 452.088 180.66 453.256Z" fill="#F0F0F0"/>
<path d="M446.252 690.826H442.457V688.784C442.166 632.165 399.554 620.199 349.938 605.898C287.189 588.094 215.976 567.664 206.344 454.132C206.344 453.548 206.344 452.964 206.344 452.672V450.629H208.387C337.388 450.629 442.457 345.56 442.457 216.559H446.252C446.252 274.055 489.738 287.48 540.23 303.241C602.104 322.504 672.44 344.101 682.364 452.38V452.672C682.364 453.256 682.364 453.548 682.364 454.132V455.883H680.612C552.196 455.883 447.127 560.368 446.543 688.784L446.252 690.826ZM210.139 454.715C219.769 565.037 289.524 584.884 350.814 602.395C392.841 614.362 432.826 625.744 443.333 666.605C448.878 611.735 472.81 560.951 512.212 521.551C556.574 477.48 615.529 452.672 677.984 452.38C668.357 347.311 599.477 326.006 538.77 307.327C496.159 294.193 455.591 281.643 444.792 240.199C433.118 359.569 332.427 453.548 210.139 454.715Z" fill="#EEEEEE"/>
<path d="M446.251 662.516H442.457V660.475C442.165 610.276 404.515 598.601 361.029 584.884C307.618 567.956 246.912 548.985 235.821 455.299C235.821 454.715 235.821 454.423 235.821 453.839V451.797H237.865C350.814 451.797 442.457 359.861 442.457 247.204H446.251C446.251 298.279 484.776 311.413 529.139 326.297C581.965 344.101 641.796 364.239 652.887 453.548V453.839C652.887 454.131 652.887 454.715 652.887 455.299V457.05H651.136C539.062 457.05 447.127 548.401 446.543 660.475L446.251 662.516ZM239.616 455.883C250.706 546.067 309.662 564.746 361.904 581.089C398.678 592.764 433.701 603.563 443.332 639.461C454.423 535.852 542.273 454.423 648.509 453.256C637.418 367.45 579.046 347.603 527.679 330.384C490.322 317.834 454.715 305.868 444.792 269.677C433.993 373.578 346.144 455.007 239.616 455.883Z" fill="#E3E3E3"/>
<path d="M446.251 634.499H442.456V632.456C442.165 588.386 409.477 577.003 371.827 563.577C327.756 547.817 277.557 530.306 265.299 456.758V456.465C265.299 456.174 265.299 455.59 265.299 455.299V453.255H267.342C363.947 453.255 442.456 374.745 442.456 278.141H446.251C446.251 323.086 479.523 335.637 518.34 349.938C561.827 366.281 611.442 384.96 623.409 454.714V455.006C623.409 455.299 623.409 455.882 623.409 456.174V457.925H621.658C525.637 457.925 447.127 536.143 446.543 631.872L446.251 634.499ZM269.385 457.341C281.643 527.387 330.092 544.607 372.995 559.784C404.515 570.874 434.577 581.673 443.624 612.61C453.839 524.469 528.847 455.59 619.323 454.423C607.357 387.587 559.2 369.784 516.88 353.732C484.776 341.765 454.131 330.091 445.083 298.862C434.577 387.295 359.861 456.465 269.385 457.341Z" fill="#EEEEEE"/>
<path d="M446.252 606.482H442.457V604.439C442.166 566.497 414.439 555.114 382.043 541.689C347.311 527.388 307.911 511.335 294.777 457.926V457.634C294.777 457.342 294.777 457.051 294.777 456.758V454.715H296.82C377.081 454.715 442.457 389.339 442.457 309.078H446.252C446.252 347.895 474.854 360.153 507.834 374.163C541.981 388.756 580.798 405.391 593.932 456.175V456.758C593.932 457.051 593.932 457.342 593.932 457.634V459.385H592.181C512.503 459.385 447.127 524.47 446.544 604.146L446.252 606.482ZM298.863 458.802C311.997 509.001 349.938 524.47 383.21 538.187C409.769 548.986 435.161 559.492 443.333 585.76C452.964 513.379 514.546 456.758 589.262 455.591C576.42 408.018 539.063 391.966 505.79 377.957C478.648 366.282 452.964 355.192 444.5 328.633C435.453 401.306 373.871 457.634 298.863 458.802Z" fill="#ECECEC"/>
<path d="M446.251 578.463H442.456V576.42C442.165 543.732 418.525 532.349 391.382 518.924C366.282 506.666 337.971 492.949 324.546 459.969V459.677V459.385C324.546 459.093 324.546 458.801 324.546 458.509V456.466H326.589C390.506 456.466 442.749 404.515 442.749 340.307H446.543C446.543 373.578 470.767 385.837 498.786 399.846C523.302 412.104 551.028 426.113 564.454 457.634L564.745 457.925V458.218C564.745 458.509 564.745 458.801 564.745 459.093V460.844H562.994C499.369 460.844 447.418 512.503 446.834 576.128L446.251 578.463ZM328.632 460.26C341.766 490.614 367.449 503.164 392.549 515.422C414.73 526.22 436.036 536.727 443.332 559.2C451.796 502.288 500.537 458.509 559.2 457.05C546.358 428.448 520.966 415.606 496.45 403.348C473.685 391.965 452.088 380.875 444.5 358.11C436.328 415.022 387.587 458.801 328.632 460.26Z" fill="#FCFCFC" fill-opacity="0.4"/>
<path d="M446.251 550.152H442.456V548.109C442.165 518.632 419.4 505.206 395.176 491.197C380.583 482.733 365.698 473.977 354.315 461.428L353.732 460.844V460.26C353.732 459.968 353.732 459.968 353.732 459.676V457.633H355.774C403.639 457.633 442.456 418.816 442.456 370.951H446.251C446.251 401.305 469.891 415.022 494.699 429.615C508.708 437.787 523.301 446.251 534.392 458.217L534.976 458.801V459.676C534.976 459.968 534.976 459.968 534.976 460.26V462.011H533.225C485.651 462.011 446.834 500.536 446.543 548.109L446.251 550.152ZM359.569 461.719C370.076 472.518 383.793 480.398 396.927 487.986C417.357 499.953 436.911 511.335 443.624 532.349C451.212 491.781 486.235 460.26 528.555 458.509C518.34 448.294 505.206 440.705 492.364 433.409C471.35 421.151 451.212 409.476 444.499 387.879C437.203 428.448 402.18 459.676 359.569 461.719Z" fill="#FAFAFA" fill-opacity="0.5"/>
<path d="M446.251 522.134H442.457V520.091C442.166 488.862 416.774 463.471 385.545 463.471H383.21V461.72C383.21 461.428 383.21 461.428 383.21 461.136V459.093H385.253C416.774 459.093 442.457 433.409 442.457 401.889H446.251C446.251 433.409 471.935 459.093 503.456 459.093H505.499V461.136C505.499 461.428 505.499 461.428 505.499 461.72V463.471H503.748C472.519 463.471 446.835 488.862 446.835 520.091L446.251 522.134ZM399.846 461.428C421.443 466.682 438.663 483.901 444.208 505.207C449.754 483.609 466.973 466.682 488.571 461.428C466.973 456.174 449.754 439.247 444.208 417.649C438.663 438.955 421.443 455.883 399.846 461.428Z" fill="white" fill-opacity="0.3"/>
</g>
</svg>
